<svg width="10" height="16" viewBox="0 0 10 16" fill="none" xmlns="http://www.w3.org/2000/svg">
<path d="M9.5 8C9.5 8.31567 9.38541 8.58625 9.13859 8.82074L2.28061 15.6933C2.08668 15.8918 1.83986 16 1.54897 16C0.967189 16 0.5 15.531 0.5 14.9267C0.5 14.6291 0.623408 14.3675 0.817336 14.1601L6.99657 8L0.817336 1.83991C0.623408 1.63247 0.5 1.36189 0.5 1.07328C0.5 0.468997 0.967189 0 1.54897 0C1.83986 0 2.08668 0.10823 2.28061 0.306652L9.13859 7.17024C9.38541 7.41375 9.5 7.68433 9.5 8Z" fill="#909590"/>
</svg>
