<svg width="40" height="56" viewBox="0 0 40 56" fill="none" xmlns="http://www.w3.org/2000/svg">
<path d="M37.904 11.284L26.424 1.444C25.3367 0.512226 23.952 5.03723e-05 22.52 0H6C4.4087 0 2.88258 0.632141 1.75736 1.75736C0.632141 2.88258 0 4.4087 0 6V50C0 51.5913 0.632141 53.1174 1.75736 54.2426C2.88258 55.3679 4.4087 56 6 56H34C35.5913 56 37.1174 55.3679 38.2426 54.2426C39.3679 53.1174 40 51.5913 40 50V15.84C40.0008 14.9742 39.8138 14.1186 39.4519 13.332C39.0901 12.5455 38.562 11.8467 37.904 11.284ZM34.928 14H28C27.4696 14 26.9609 13.7893 26.5858 13.4142C26.2107 13.0391 26 12.5304 26 12V6.348L34.928 14ZM36 50C36 50.5304 35.7893 51.0391 35.4142 51.4142C35.0391 51.7893 34.5304 52 34 52H6C5.46957 52 4.96086 51.7893 4.58579 51.4142C4.21071 51.0391 4 50.5304 4 50V6C4 5.46957 4.21071 4.96086 4.58579 4.58579C4.96086 4.21071 5.46957 4 6 4H22V12C22 13.5913 22.6321 15.1174 23.7574 16.2426C24.8826 17.3679 26.4087 18 28 18H36V50Z" fill="#175676"/>
<path d="M12 26C11.4696 26 10.9609 26.2107 10.5858 26.5858C10.2107 26.9609 10 27.4696 10 28C10 28.5304 10.2107 29.0391 10.5858 29.4142C10.9609 29.7893 11.4696 30 12 30H28C28.5304 30 29.0391 29.7893 29.4142 29.4142C29.7893 29.0391 30 28.5304 30 28C30 27.4696 29.7893 26.9609 29.4142 26.5858C29.0391 26.2107 28.5304 26 28 26H12Z" fill="#175676"/>
<path d="M28 34H12C11.4696 34 10.9609 34.2107 10.5858 34.5858C10.2107 34.9609 10 35.4696 10 36C10 36.5304 10.2107 37.0391 10.5858 37.4142C10.9609 37.7893 11.4696 38 12 38H28C28.5304 38 29.0391 37.7893 29.4142 37.4142C29.7893 37.0391 30 36.5304 30 36C30 35.4696 29.7893 34.9609 29.4142 34.5858C29.0391 34.2107 28.5304 34 28 34Z" fill="#175676"/>
<path d="M22 42H12C11.4696 42 10.9609 42.2107 10.5858 42.5858C10.2107 42.9609 10 43.4696 10 44C10 44.5304 10.2107 45.0391 10.5858 45.4142C10.9609 45.7893 11.4696 46 12 46H22C22.5304 46 23.0391 45.7893 23.4142 45.4142C23.7893 45.0391 24 44.5304 24 44C24 43.4696 23.7893 42.9609 23.4142 42.5858C23.0391 42.2107 22.5304 42 22 42Z" fill="#175676"/>
</svg>
