<svg width="16" height="24" viewBox="0 0 16 24" fill="none" xmlns="http://www.w3.org/2000/svg">
<path d="M14.5625 4.66667H1.4375C1.19589 4.66667 1 4.46145 1 4.20833V2.83333C1 1.82245 1.78506 1 2.75 1H13.25C14.2149 1 15 1.82245 15 2.83333V4.20833C15 4.46145 14.8041 4.66667 14.5625 4.66667ZM1.875 3.75H14.125V2.83333C14.125 2.32778 13.7326 1.91667 13.25 1.91667H2.75C2.26743 1.91667 1.875 2.32778 1.875 2.83333V3.75Z" fill="#2A1A1F" stroke="#2A1A1F" stroke-width="0.2"/>
<path d="M14.5625 19.3333H1.4375C1.19589 19.3333 1 19.1281 1 18.875V4.20833C1 3.95522 1.19589 3.75 1.4375 3.75H14.5625C14.8041 3.75 15 3.95522 15 4.20833V18.875C15 19.1281 14.8041 19.3333 14.5625 19.3333ZM1.875 18.4167H14.125V4.66667H1.875V18.4167Z" fill="#2A1A1F" stroke="#2A1A1F" stroke-width="0.2"/>
<path d="M13.25 23.0003H2.75C1.78506 23.0003 1 22.1779 1 21.167V18.8753C1 18.6222 1.19589 18.417 1.4375 18.417H14.5625C14.8041 18.417 15 18.6222 15 18.8753V21.167C15 22.1779 14.2149 23.0003 13.25 23.0003ZM1.875 19.3337V21.167C1.875 21.6725 2.26743 22.0837 2.75 22.0837H13.25C13.7326 22.0837 14.125 21.6725 14.125 21.167V19.3337H1.875Z" fill="#2A1A1F" stroke="#2A1A1F" stroke-width="0.2"/>
<path d="M9.319 21.1667H6.67969C6.43808 21.1667 6.24219 20.9614 6.24219 20.7083C6.24219 20.4552 6.43808 20.25 6.67969 20.25H9.319C9.56061 20.25 9.7565 20.4552 9.7565 20.7083C9.7565 20.9614 9.56061 21.1667 9.319 21.1667Z" fill="#2A1A1F" stroke="#2A1A1F" stroke-width="0.2"/>
<path d="M8.00195 11.082C7.64819 11.082 7.31772 10.9399 7.07141 10.6819C6.8251 10.4238 6.68945 10.0776 6.68945 9.70703C6.68945 8.94881 7.2782 8.33203 8.00195 8.33203C8.72571 8.33203 9.31445 8.94881 9.31445 9.70703C9.31445 10.0591 9.19034 10.3878 8.9639 10.6394C8.953 10.6544 8.94104 10.6685 8.92844 10.6817C8.68234 10.9399 8.35336 11.082 8.00195 11.082ZM8.6189 10.3578H8.62317H8.6189ZM8.00195 9.2487C7.76077 9.2487 7.56445 9.45437 7.56445 9.70703C7.56445 9.8328 7.6091 9.94895 7.69006 10.0338C7.84216 10.1931 8.11859 10.2061 8.28436 10.0582C8.29376 10.0465 8.30359 10.0353 8.31384 10.0248C8.39609 9.94112 8.43945 9.83124 8.43945 9.70703C8.43945 9.45437 8.24313 9.2487 8.00195 9.2487Z" fill="#2A1A1F" stroke="#2A1A1F" stroke-width="0.2"/>
<path d="M4.50122 14.749C3.77747 14.749 3.18872 14.1322 3.18872 13.374C3.18872 12.6158 3.77747 11.999 4.50122 11.999C4.85605 11.999 5.18652 12.1443 5.43155 12.4079C5.67508 12.6561 5.81372 13.0023 5.81372 13.374C5.81372 14.1322 5.22498 14.749 4.50122 14.749ZM4.50122 12.9157C4.26004 12.9157 4.06372 13.1214 4.06372 13.374C4.06372 13.6309 4.25598 13.8324 4.50122 13.8324C4.7424 13.8324 4.93872 13.6267 4.93872 13.374C4.93872 13.2516 4.89407 13.1388 4.8129 13.056C4.72574 12.9625 4.61807 12.9157 4.50122 12.9157Z" fill="#2A1A1F" stroke="#2A1A1F" stroke-width="0.2"/>
<path d="M11.502 14.749C10.7782 14.749 10.1895 14.1322 10.1895 13.374C10.1895 13.0066 10.3251 12.6621 10.5712 12.4039C10.5849 12.3895 10.5994 12.3761 10.6146 12.3638C10.8547 12.1282 11.1674 11.999 11.502 11.999C12.2257 11.999 12.8145 12.6158 12.8145 13.374C12.8145 14.1322 12.2257 14.749 11.502 14.749ZM11.1664 13.0791C11.1003 13.1605 11.0645 13.2639 11.0645 13.374C11.0645 13.6309 11.2567 13.8324 11.502 13.8324C11.7431 13.8324 11.9395 13.6267 11.9395 13.374C11.9395 13.1214 11.7431 12.9157 11.502 12.9157C11.3836 12.9157 11.2787 12.9613 11.1986 13.0475C11.1884 13.0585 11.1775 13.069 11.1664 13.0791Z" fill="#2A1A1F" stroke="#2A1A1F" stroke-width="0.2"/>
<path d="M10.88 13.1856C10.7681 13.1856 10.6561 13.1409 10.5707 13.0514L8.30884 10.6818C8.13794 10.5028 8.13794 10.2127 8.30884 10.0337C8.47974 9.85465 8.75659 9.85465 8.92749 10.0337L11.1893 12.4032C11.3602 12.5823 11.3602 12.8723 11.1893 13.0514C11.1039 13.1409 10.9919 13.1856 10.88 13.1856Z" fill="#2A1A1F" stroke="#2A1A1F" stroke-width="0.2"/>
<path d="M5.11914 13.1856C5.0072 13.1856 4.89526 13.1409 4.80981 13.0514C4.63892 12.8723 4.63892 12.5823 4.80981 12.4032L7.07166 10.0337C7.24255 9.85465 7.51941 9.85465 7.69031 10.0337C7.86121 10.2127 7.86121 10.5028 7.69031 10.6818L5.42847 13.0514C5.34302 13.1409 5.23108 13.1856 5.11914 13.1856Z" fill="#2A1A1F" stroke="#2A1A1F" stroke-width="0.2"/>
</svg>
