<svg viewBox="0 0 24 24" fill="none" xmlns="http://www.w3.org/2000/svg"><g opacity=".8" fill="#2A1A1F" stroke="#2A1A1F" stroke-width=".5"><path d="M19.549 1H4.456a.957.957 0 0 0-.956.956v20.088c0 .527.429.956.956.956h15.093a.957.957 0 0 0 .955-.956V1.956A.957.957 0 0 0 19.548 1ZM8.859 4.667h6.286a1.25 1.25 0 0 0 1.257-1.242v-.359h1.897V20.75H5.705V3.066h1.897v.36c0 .684.564 1.24 1.257 1.24Zm6.993-1.242a.7.7 0 0 1-.707.692H8.859a.7.7 0 0 1-.707-.692v-.359h7.7v.36Zm-7.7-.909V1.55h7.7v.966h-7.7Zm11.802 19.528a.406.406 0 0 1-.406.406H4.456a.406.406 0 0 1-.406-.406V1.956c0-.224.182-.406.406-.406h3.146v.966H5.43a.275.275 0 0 0-.275.275v18.234c0 .152.123.275.275.275h13.144a.275.275 0 0 0 .275-.275V2.791a.275.275 0 0 0-.275-.275h-2.172V1.55h3.146c.224 0 .406.182.406.406v20.088Z"/><path d="M10.398 7.787h1.182v1.182a.275.275 0 1 0 .55 0V7.787h1.182a.275.275 0 1 0 0-.55H12.13V6.055a.275.275 0 1 0-.55 0v1.182h-1.182a.275.275 0 1 0 0 .55ZM7.997 18.814h7.992a.275.275 0 0 0 .275-.275v-7.69a.275.275 0 0 0-.275-.275H7.997a.275.275 0 0 0-.275.275v7.69c0 .152.123.275.275.275Zm7.717-3.088h-4.96v-1.999h4.96v1.999Zm-5.51 0H8.272v-1.999h1.932v1.999Zm-1.932.55h1.932v1.988H8.272v-1.988Zm2.482 1.988v-1.988h4.96v1.988h-4.96Zm4.96-5.087h-4.96v-2.053h4.96v2.053Zm-5.51-2.053v2.053H8.272v-2.053h1.932Z"/></g></svg>