<svg width="18" height="24" viewBox="0 0 18 24" fill="none" xmlns="http://www.w3.org/2000/svg">
    <path d="M11.7431 19.4932C11.8 19.5268 11.8618 19.5449 11.9237 19.5449C11.9855 19.5449 12.0473 19.5268 12.1042 19.4932L12.27 19.3922C13.5687 18.608 14.3776 17.1431 14.3776 15.5746V15.3727C14.3776 15.2381 14.3083 15.1139 14.197 15.044L12.1042 13.7809C11.9929 13.7136 11.8544 13.7136 11.7431 13.7809L9.65031 15.044C9.53899 15.1113 9.46973 15.2355 9.46973 15.3727V15.5746C9.46973 17.1456 10.2762 18.608 11.5773 19.3922L11.7431 19.4932ZM10.1921 15.5927L11.9237 14.5471L13.6553 15.5927C13.6503 16.8816 12.9874 18.08 11.9237 18.7296C10.86 18.08 10.197 16.8816 10.1921 15.5927Z" fill="#2A1A1F" stroke="#2A1A1F" stroke-width="0.2"/>
    <path d="M12.9184 16.3945C13.0594 16.2469 13.0594 16.0062 12.9184 15.8587C12.7774 15.7112 12.5473 15.7112 12.4063 15.8587L11.6889 16.6093L11.4391 16.3479C11.2981 16.2003 11.068 16.2003 10.927 16.3479C10.786 16.4954 10.786 16.7361 10.927 16.8836L11.4317 17.4116C11.5034 17.4867 11.5949 17.5229 11.6865 17.5229C11.778 17.5229 11.872 17.4867 11.9413 17.4116L12.9184 16.3945Z" fill="#2A1A1F" stroke="#2A1A1F" stroke-width="0.2"/>
    <path d="M16.9951 5.68471C16.9951 5.67694 16.9926 5.67176 16.9926 5.664C16.9926 5.65882 16.9901 5.65106 16.9876 5.64588C16.9852 5.64071 16.9852 5.63553 16.9827 5.62777C16.9802 5.62259 16.9777 5.61482 16.9777 5.60965C16.9753 5.60447 16.9728 5.59929 16.9728 5.59153C16.9703 5.58635 16.9678 5.58118 16.9654 5.576C16.9629 5.57082 16.9604 5.56565 16.9579 5.55788C16.9555 5.55271 16.953 5.54753 16.9505 5.54235C16.9481 5.53718 16.9456 5.532 16.9406 5.52682C16.9382 5.52165 16.9332 5.51647 16.9283 5.51129C16.9258 5.50612 16.9233 5.50353 16.9184 5.49835C16.9109 5.488 16.9035 5.48024 16.8936 5.46988L12.7304 1.11388C12.7205 1.10353 12.713 1.09576 12.7032 1.088C12.7007 1.08541 12.6957 1.08282 12.6933 1.08024C12.6858 1.07506 12.6809 1.06988 12.6735 1.06471C12.6685 1.06212 12.6636 1.05953 12.6586 1.05694C12.6537 1.05435 12.6487 1.04918 12.6413 1.04659C12.6364 1.044 12.6314 1.04141 12.6265 1.03882C12.6215 1.03624 12.6141 1.03365 12.6092 1.03106C12.6042 1.02847 12.5993 1.02847 12.5943 1.02588C12.5894 1.02329 12.5819 1.02071 12.577 1.01812C12.572 1.01553 12.5671 1.01553 12.5622 1.01294C12.5547 1.01035 12.5498 1.01035 12.5424 1.00776C12.5374 1.00776 12.53 1.00518 12.525 1.00518C12.5201 1.00518 12.5152 1.00259 12.5077 1.00259C12.4954 1.00259 12.4855 1 12.4731 1H2.88002C1.84354 1 1 1.88259 1 2.96706V21.0329C1 22.1174 1.84354 23 2.88002 23H15.12C16.1565 23 17 22.1174 17 21.0329V5.73906C17 5.72612 17 5.71318 16.9975 5.70282C16.9975 5.69506 16.9975 5.68988 16.9951 5.68471ZM16.2777 21.0355C16.2777 21.7033 15.7582 22.2468 15.12 22.2468H2.88002C2.24181 22.2468 1.72233 21.7033 1.72233 21.0355V2.96965C1.72233 2.30188 2.24181 1.75835 2.88002 1.75835H12.1119V4.63129C12.1119 5.44918 12.7477 6.11694 13.5318 6.11694H16.2777V21.0355Z" fill="#2A1A1F" stroke="#2A1A1F" stroke-width="0.2"/>
    <path d="M3.75374 3.93741H10.2992C10.4996 3.93741 10.6604 3.76917 10.6604 3.55952C10.6604 3.34988 10.4996 3.18164 10.2992 3.18164H3.75374C3.55337 3.18164 3.39258 3.34988 3.39258 3.55952C3.39258 3.76917 3.55337 3.93741 3.75374 3.93741Z" fill="#2A1A1F" stroke="#2A1A1F" stroke-width="0.2"/>
    <path d="M3.75374 6.11709H10.2992C10.4996 6.11709 10.6604 5.94886 10.6604 5.73921C10.6604 5.52956 10.4996 5.36133 10.2992 5.36133H3.75374C3.55337 5.36133 3.39258 5.52956 3.39258 5.73921C3.39258 5.94886 3.55337 6.11709 3.75374 6.11709Z" fill="#2A1A1F" stroke="#2A1A1F" stroke-width="0.2"/>
    <path d="M3.38965 7.91795C3.38965 8.1276 3.55044 8.29583 3.75081 8.29583H14.556C14.7564 8.29583 14.9172 8.1276 14.9172 7.91795C14.9172 7.7083 14.7564 7.54007 14.556 7.54007H3.75329C3.55291 7.53748 3.38965 7.7083 3.38965 7.91795Z" fill="#2A1A1F" stroke="#2A1A1F" stroke-width="0.2"/>
    <path d="M14.5564 20.3525H9.28987C9.0895 20.3525 8.92871 20.5208 8.92871 20.7304C8.92871 20.9401 9.0895 21.1083 9.28987 21.1083H14.5564C14.7568 21.1083 14.9176 20.9401 14.9176 20.7304C14.9176 20.5208 14.7568 20.3525 14.5564 20.3525Z" fill="#2A1A1F" stroke="#2A1A1F" stroke-width="0.2"/>
    <path d="M14.5565 9.7168H3.75374C3.55337 9.7168 3.39258 9.88503 3.39258 10.0947C3.39258 10.3043 3.55337 10.4726 3.75374 10.4726H14.5589C14.7593 10.4726 14.9201 10.3043 14.9201 10.0947C14.9201 9.88503 14.7568 9.7168 14.5565 9.7168Z" fill="#2A1A1F" stroke="#2A1A1F" stroke-width="0.2"/>
    <path d="M14.5565 11.8965H3.75374C3.55337 11.8965 3.39258 12.0647 3.39258 12.2744C3.39258 12.484 3.55337 12.6522 3.75374 12.6522H14.5589C14.7593 12.6522 14.9201 12.484 14.9201 12.2744C14.9201 12.0647 14.7568 11.8965 14.5565 11.8965Z" fill="#2A1A1F" stroke="#2A1A1F" stroke-width="0.2"/>
</svg>
