<svg width="22" height="22" viewBox="0 0 22 22" fill="none" xmlns="http://www.w3.org/2000/svg">
<path d="M12.8698 20.0479C13.131 20.0479 13.3423 20.2608 13.3423 20.5239C13.3423 20.7871 13.131 21 12.8698 21H1.4725C1.21133 21 1 20.7871 1 20.5239V1.47605C1 1.21292 1.21133 1 1.4725 1H12.8698C13.131 1 13.3423 1.21292 13.3423 1.47605C13.3423 1.73919 13.131 1.95211 12.8698 1.95211H1.94499V20.0479H12.8698ZM20.8467 10.6488C20.9413 10.7359 21 10.8611 21 11.0003C21 11.1395 20.9407 11.2641 20.8467 11.3512L15.8808 16.8789C15.7067 17.0733 15.4089 17.088 15.2159 16.9125C15.0228 16.7371 15.0083 16.4371 15.1824 16.2426L19.4645 11.4764H4.32324C4.06207 11.4764 3.85074 11.2634 3.85074 11.0003C3.85074 10.7372 4.06207 10.5243 4.32324 10.5243H19.4645L15.1824 5.758C15.0083 5.56351 15.0228 5.26415 15.2159 5.08809C15.4083 4.91267 15.706 4.92729 15.8808 5.12178L20.8467 10.6488Z" fill="#2A1A1F" stroke="#2A1A1F" stroke-width="0.4"/>
</svg>
