<svg viewBox="0 0 24 24" fill="none" xmlns="http://www.w3.org/2000/svg"><g opacity=".8" fill="#2A1A1F" stroke="#2A1A1F" stroke-width=".6"><path d="M13.997 1h-3.994a.275.275 0 0 0-.275.275v2.51h-2.51a.275.275 0 0 0-.275.275v3.994c0 .152.123.275.275.275h2.51v2.51c0 .152.123.275.275.275h3.994a.275.275 0 0 0 .275-.275V8.33h2.51a.275.275 0 0 0 .275-.275V4.06a.275.275 0 0 0-.275-.275h-2.51v-2.51A.275.275 0 0 0 13.997 1Zm2.51 3.335V7.78h-2.51a.275.275 0 0 0-.275.275v2.51h-3.444v-2.51a.275.275 0 0 0-.275-.275h-2.51V4.335h2.51a.275.275 0 0 0 .275-.275V1.55h3.444v2.51c0 .152.123.275.275.275h2.51ZM4.329 13.02a2.368 2.368 0 0 0-2.365 2.364 2.368 2.368 0 0 0 2.365 2.365 2.368 2.368 0 0 0 2.365-2.365 2.368 2.368 0 0 0-2.365-2.364Zm0 4.18c-1.001 0-1.815-.815-1.815-1.816 0-1 .814-1.815 1.815-1.815 1 0 1.815.815 1.815 1.815 0 1.001-.815 1.815-1.815 1.815ZM1.275 23h6.107a.275.275 0 0 0 .275-.276v-.984a3.332 3.332 0 0 0-3.329-3.329A3.332 3.332 0 0 0 1 21.74v.984c0 .152.123.275.275.275Zm.275-1.26a2.782 2.782 0 0 1 2.778-2.779 2.782 2.782 0 0 1 2.779 2.779v.71H1.55v-.71ZM12 17.75a2.368 2.368 0 0 0 2.364-2.366A2.368 2.368 0 0 0 12 13.02a2.368 2.368 0 0 0-2.365 2.364A2.368 2.368 0 0 0 12 17.75Zm0-4.18c1 0 1.815.814 1.815 1.814C13.815 16.385 13 17.2 12 17.2c-1.001 0-1.815-.814-1.815-1.815 0-1 .814-1.815 1.815-1.815ZM8.672 22.724c0 .152.123.275.275.275h6.107a.275.275 0 0 0 .274-.275v-.984A3.332 3.332 0 0 0 12 18.41a3.332 3.332 0 0 0-3.328 3.329v.984Zm.55-.984A2.782 2.782 0 0 1 12 18.96a2.782 2.782 0 0 1 2.778 2.779v.71H9.223v-.71ZM19.672 17.75a2.368 2.368 0 0 0 2.364-2.366 2.368 2.368 0 0 0-2.364-2.364 2.368 2.368 0 0 0-2.365 2.364 2.368 2.368 0 0 0 2.365 2.365Zm0-4.18c1 0 1.814.814 1.814 1.814 0 1.001-.814 1.815-1.814 1.815-1.001 0-1.815-.814-1.815-1.815 0-1 .814-1.815 1.815-1.815ZM19.672 18.411a3.332 3.332 0 0 0-3.329 3.329v.984c0 .152.123.275.275.275h6.107a.275.275 0 0 0 .275-.275v-.984a3.332 3.332 0 0 0-3.328-3.329Zm2.778 4.038h-5.557v-.71a2.782 2.782 0 0 1 2.779-2.778 2.782 2.782 0 0 1 2.778 2.779v.71Z"/></g></svg>