<svg width="24" height="24" viewBox="0 0 24 24" fill="none" xmlns="http://www.w3.org/2000/svg">
<path d="M12.348 12.0286C15.131 12.0009 17.9631 14.0049 19.0408 16.98C19.3268 17.7628 19.482 18.5879 19.5 19.4218C19.5 19.8134 19.451 19.912 19.102 20.0693L14.7147 22.064C14.0809 22.3508 13.4471 22.6375 12.8164 22.9304C12.7327 22.9719 12.6413 22.9955 12.548 22.9998C12.4548 23.004 12.3617 22.9888 12.2745 22.955C9.84562 22.1062 7.41671 21.2614 4.98781 20.4207C4.55612 20.2697 4.52244 20.2049 4.50407 19.7486C4.47099 18.7596 4.6398 17.7743 5.00006 16.8536C5.46408 15.6136 6.25344 14.5236 7.28404 13.6996C8.65566 12.5897 10.2355 12.0533 12.348 12.0286ZM11.7173 21.7958V15.5926C10.4773 15.4077 9.57415 14.6893 8.77812 13.8014C7.74781 14.3726 6.89053 15.2144 6.2975 16.2372C5.70447 17.26 5.39787 18.4256 5.41032 19.6099L11.7173 21.7958ZM15.2688 13.8168C14.6106 14.7417 13.8023 15.4292 12.6511 15.6081V22.0024C12.7276 21.9715 12.7919 21.95 12.8532 21.9222L18.2417 19.4557C18.6182 19.2831 18.6182 19.2831 18.5662 18.8669C18.4257 17.5804 17.9173 16.3626 17.1027 15.3614C16.5935 14.7348 15.9713 14.2108 15.2688 13.8168ZM9.62008 13.379C9.97454 13.7854 10.3974 14.1256 10.8692 14.3841C12.1949 15.0809 13.5727 14.6739 14.4299 13.4037C12.8859 12.7911 11.1702 12.7823 9.62008 13.379Z" fill="#2A1A1F" stroke="#2A1A1F" stroke-width="0.15"/>
<path d="M11.9992 1.92492C12.8583 1.92492 13.6981 2.18143 14.4125 2.66201C15.1269 3.1426 15.6837 3.82568 16.0126 4.62491C16.3416 5.42413 16.4278 6.30362 16.2604 7.15218C16.093 8.00074 15.6795 8.78028 15.0723 9.39224C14.465 10.0042 13.6912 10.4211 12.8486 10.5903C12.0061 10.7594 11.1326 10.6732 10.3387 10.3426C9.54483 10.0119 8.86611 9.45166 8.38836 8.73262C7.91062 8.01357 7.65531 7.16804 7.6547 6.3029C7.65551 5.14257 8.11339 4.02996 8.92788 3.20919C9.74236 2.38843 10.8469 1.92656 11.9992 1.92492ZM11.9992 1C10.9584 1 9.94097 1.31075 9.07554 1.89297C8.21012 2.47518 7.53555 3.30272 7.13712 4.27095C6.73869 5.23919 6.63429 6.30465 6.83711 7.33262C7.03994 8.3606 7.54088 9.30494 8.27661 10.0463C9.01235 10.7876 9.94983 11.2926 10.9705 11.4974C11.9913 11.7023 13.0494 11.5977 14.0111 11.1971C14.9728 10.7964 15.795 10.1176 16.3737 9.24648C16.9523 8.37533 17.2615 7.35097 17.2621 6.3029C17.2625 5.60666 17.1267 4.91716 16.8624 4.2738C16.5981 3.63044 16.2105 3.04583 15.7217 2.55337C15.233 2.06091 14.6527 1.67025 14.0139 1.40372C13.3752 1.13719 12.6906 1 11.9992 1Z" fill="#2A1A1F" stroke="#2A1A1F" stroke-width="0.15"/>
</svg>
