<svg viewBox="0 0 24 24" fill="none" xmlns="http://www.w3.org/2000/svg"><g opacity=".8" fill="#2A1A1F" stroke="#2A1A1F" stroke-width=".5"><path d="M20.976 5.661c.367 0 .734-.142 1.016-.398a1.527 1.527 0 0 0 .085-2.131 1.5 1.5 0 0 0-2.116-.086 1.527 1.527 0 0 0-.085 2.132c.282.313.705.483 1.1.483Zm-.677-.88a.909.909 0 0 1-.113-1.08l1.185 1.278c-.366.17-.79.114-1.072-.199Zm1.355-1.251c.282.312.31.739.112 1.08l-1.185-1.28a.907.907 0 0 1 1.073.2ZM6.671 18.51a1.653 1.653 0 0 0-.48 1.051c0 .398.141.768.424 1.052a1.63 1.63 0 0 0 1.044.483h.056c.367 0 .734-.142 1.016-.398.282-.284.451-.653.48-1.051a1.396 1.396 0 0 0-.396-1.08 1.534 1.534 0 0 0-2.144-.057Zm1.693.454c.17.171.254.427.254.654 0 .142-.057.285-.113.427l-1.185-1.28c.339-.17.762-.085 1.044.2Zm-.705 1.564a.915.915 0 0 1-.903-.938c0-.142.056-.284.113-.427l1.185 1.28a.896.896 0 0 1-.395.085ZM12.935 16.633l-1.693 2.302a1.13 1.13 0 0 0-.198.796.93.93 0 0 0 .424.682c.169.143.395.2.62.2h.17a.922.922 0 0 0 .677-.427l1.693-2.302c.338-.483.254-1.137-.226-1.478-.48-.341-1.128-.256-1.467.227Zm-.452 3.212a.536.536 0 0 1-.31.199.426.426 0 0 1-.367-.085.541.541 0 0 1-.197-.313.455.455 0 0 1 .085-.37l.677-.909.79.597-.678.881Zm1.693-2.302-.677.91-.79-.598.677-.91c.085-.141.254-.198.395-.198.113 0 .198.028.282.085.226.2.255.512.113.71ZM8.28 14.048l-2.737.796c-.283.085-.508.256-.621.511a.993.993 0 0 0-.085.796c.085.285.254.512.508.626.17.085.339.142.508.142.085 0 .197 0 .282-.029l2.737-.796c.282-.085.508-.255.62-.511a.993.993 0 0 0 .085-.796c-.169-.569-.761-.91-1.298-.739ZM5.965 16.35a.43.43 0 0 1-.367-.057.45.45 0 0 1-.226-.284.438.438 0 0 1 .057-.37.449.449 0 0 1 .282-.227l1.1-.312.282.938-1.128.312ZM8.985 15.3a.449.449 0 0 1-.282.227l-1.1.313-.283-.938 1.1-.313c.057 0 .085-.028.142-.028.225 0 .423.142.48.37a.546.546 0 0 1-.057.369ZM22.161 6.828a1.058 1.058 0 0 0-1.241.824l-.593 2.786c-.056.284 0 .569.141.796.141.227.395.398.677.455.085.028.142.028.226.028.48 0 .931-.341 1.044-.853l.565-2.757c.112-.597-.254-1.165-.819-1.279Zm-.225.54h.112a.498.498 0 0 1 .367.597l-.226 1.109-.959-.2.226-1.108a.51.51 0 0 1 .48-.398Zm-.678 3.78c-.14-.028-.225-.113-.31-.227a.438.438 0 0 1-.056-.37l.225-1.108.96.2-.226 1.108c-.085.284-.339.454-.593.398ZM7.687 7.084h1.157v1.165c0 .17.113.284.282.284.17 0 .282-.114.282-.284V7.084h1.157c.17 0 .282-.114.282-.285 0-.17-.113-.284-.282-.284H9.408V5.35c0-.17-.113-.285-.282-.285-.17 0-.282.114-.282.285v1.165H7.687c-.17 0-.282.114-.282.284 0 .17.14.285.282.285Z"/><path d="M17.647 1.057C17.59 1 17.506 1 17.449 1L7.01 2.364H1.283c-.17 0-.282.114-.282.285v20.067c0 .17.113.284.282.284h15.265c.169 0 .282-.114.282-.284v-1.763l3.019-.369a.332.332 0 0 0 .254-.313L17.76 1.227c0-.056-.057-.113-.113-.17ZM16.264 22.46h-14.7V2.933h14.7V22.46Zm.565-2.075V2.649c0-.171-.113-.285-.282-.285h-5.248l5.953-.767 2.285 18.475-2.708.313Z"/><path d="M3.596 11.12h10.637c.169 0 .282-.114.282-.285 0-.17-.113-.284-.282-.284H3.596c-.17 0-.283.114-.283.284 0 .17.142.284.283.284ZM3.596 12.995h10.637c.169 0 .282-.113.282-.284 0-.17-.113-.284-.282-.284H3.596c-.17 0-.283.114-.283.284 0 .17.142.284.283.284Z"/></g></svg>