<svg width="16" height="24" viewBox="0 0 16 24" fill="none" xmlns="http://www.w3.org/2000/svg">
    <path d="M8.348 12.0286C11.131 12.0009 13.9631 14.0049 15.0408 16.98C15.3268 17.7628 15.482 18.5879 15.5 19.4218C15.5 19.8134 15.451 19.912 15.102 20.0693L10.7147 22.064C10.0809 22.3508 9.44713 22.6375 8.81643 22.9304C8.73268 22.9719 8.6413 22.9955 8.54804 22.9998C8.45478 23.004 8.36165 22.9888 8.27452 22.955C5.84562 22.1062 3.41671 21.2614 0.98781 20.4207C0.556118 20.2697 0.52244 20.2049 0.50407 19.7486C0.470994 18.7596 0.639804 17.7743 1.00006 16.8536C1.46408 15.6136 2.25344 14.5236 3.28404 13.6996C4.65566 12.5897 6.23547 12.0533 8.348 12.0286ZM7.7173 21.7958V15.5926C6.47734 15.4077 5.57415 14.6893 4.77812 13.8014C3.74781 14.3726 2.89053 15.2144 2.2975 16.2372C1.70447 17.26 1.39787 18.4256 1.41032 19.6099L7.7173 21.7958ZM11.2688 13.8168C10.6106 14.7417 9.80228 15.4292 8.6511 15.6081V22.0024C8.72764 21.9715 8.79194 21.95 8.85317 21.9222L14.2417 19.4557C14.6182 19.2831 14.6182 19.2831 14.5662 18.8669C14.4257 17.5804 13.9173 16.3626 13.1027 15.3614C12.5935 14.7348 11.9713 14.2108 11.2688 13.8168ZM5.62008 13.379C5.97454 13.7854 6.3974 14.1256 6.86923 14.3841C8.19492 15.0809 9.57266 14.6739 10.4299 13.4037C8.88591 12.7911 7.1702 12.7823 5.62008 13.379Z" fill="#175676" stroke="#175676" stroke-width="0.15"/>
    <path d="M7.99917 1.92492C8.8583 1.92492 9.69813 2.18143 10.4125 2.66201C11.1269 3.1426 11.6837 3.82568 12.0126 4.62491C12.3416 5.42413 12.4278 6.30362 12.2604 7.15218C12.093 8.00074 11.6795 8.78028 11.0723 9.39224C10.465 10.0042 9.69116 10.4211 8.84861 10.5903C8.00607 10.7594 7.13264 10.6732 6.33874 10.3426C5.54483 10.0119 4.86611 9.45166 4.38836 8.73262C3.91062 8.01357 3.65531 7.16804 3.6547 6.3029C3.65551 5.14257 4.11339 4.02996 4.92788 3.20919C5.74236 2.38843 6.84691 1.92656 7.99917 1.92492ZM7.99917 1C6.95839 1 5.94097 1.31075 5.07554 1.89297C4.21012 2.47518 3.53555 3.30272 3.13712 4.27095C2.73869 5.23919 2.63429 6.30465 2.83711 7.33262C3.03994 8.3606 3.54088 9.30494 4.27661 10.0463C5.01235 10.7876 5.94983 11.2926 6.97054 11.4974C7.99126 11.7023 9.04937 11.5977 10.0111 11.1971C10.9728 10.7964 11.795 10.1176 12.3737 9.24648C12.9523 8.37533 13.2615 7.35097 13.2621 6.3029C13.2625 5.60666 13.1267 4.91716 12.8624 4.2738C12.5981 3.63044 12.2105 3.04583 11.7217 2.55337C11.233 2.06091 10.6527 1.67025 10.0139 1.40372C9.3752 1.13719 8.69057 1 7.99917 1Z" fill="#175676" stroke="#175676" stroke-width="0.15"/>
</svg>
