<svg viewBox="0 0 24 24" fill="none" xmlns="http://www.w3.org/2000/svg"><path d="M9.706 12.239c-2.814 0-5.206 2.753-5.206 6.013v4.467c0 .169.113.281.281.281H19.22c.168 0 .281-.112.281-.281v-4.467c0-3.26-2.392-6.013-5.206-6.013h-.085v-1.574a4.173 4.173 0 0 0 1.098-6.097V1.281c0-.169-.113-.281-.282-.281H8.947c-.17 0-.282.112-.282.281v3.287a4.192 4.192 0 0 0-.872 2.557c0 1.49.788 2.81 1.998 3.569v1.573h-.085v-.028Zm9.231 6.013v4.186H5.063v-4.186c0-2.894 2.167-5.451 4.643-5.451h.282l.14.084a3.774 3.774 0 0 0 1.858.506c.647 0 1.294-.169 1.885-.534l.113-.084h.281c2.505.028 4.672 2.556 4.672 5.479Zm-4.221-16.69v2.753H9.228V1.562h5.488ZM9.144 4.849h4.953c-2.027 1.18-4.84 1.714-5.713 1.827.056-.647.337-1.293.76-1.827Zm-.788 2.417c.816-.113 4.334-.703 6.557-2.276a3.55 3.55 0 0 1 .675 2.107c0 1.574-.985 2.95-2.476 3.428-1.21.309-2.28 0-2.28 0a3.53 3.53 0 0 1-2.476-3.26Zm2.307 3.82c.028 0 .563.17 1.295.17.394 0 .816-.029 1.294-.17h.028c.113-.027.254-.083.366-.14v1.405l-.056.028c-.985.59-2.195.59-3.18 0l-.056-.028v-1.405c.112.057.197.113.31.14Z" fill="#2A1A1F" stroke="#2A1A1F" stroke-width=".5"/><path d="M11.367 3.192h.366v.337c0 .169.112.28.281.28.169 0 .282-.111.282-.28v-.337h.337c.17 0 .282-.113.282-.281 0-.169-.113-.281-.282-.281h-.337v-.337c0-.169-.113-.281-.282-.281-.169 0-.281.112-.281.28v.338h-.338c-.169 0-.281.112-.281.28 0 .17.112.282.253.282ZM13.224 18.14h-.929v-.927c0-.169-.112-.281-.281-.281-.169 0-.281.112-.281.28v.928h-.93c-.168 0-.28.112-.28.28 0 .17.112.282.28.282h.93v.927c0 .168.112.28.281.28.169 0 .281-.111.281-.28v-.927h.93c.168 0 .28-.113.28-.281 0-.169-.112-.281-.28-.281Z" fill="#2A1A1F" stroke="#2A1A1F" stroke-width=".5"/></svg>