<svg viewBox="0 0 24 24" fill="none" xmlns="http://www.w3.org/2000/svg"><g opacity=".8" fill="#2A1A1F" stroke="#2A1A1F" stroke-width=".5"><path d="M22.725 22.45h-.67V1.275A.275.275 0 0 0 21.781 1H2.22a.275.275 0 0 0-.275.275V22.45h-.67a.275.275 0 1 0 0 .55h21.45a.275.275 0 1 0 0-.55ZM2.495 1.55h19.01v20.9H2.495V1.55Z"/><path d="M8.215 12h-3.68a.275.275 0 0 0-.274.275v3.002c0 .152.123.275.275.275h3.68a.275.275 0 0 0 .274-.275v-3.002A.275.275 0 0 0 8.215 12Zm-.275 3.002H4.81V12.55h3.13v2.452ZM8.216 17.412h-3.68a.275.275 0 0 0-.275.275v3.002c0 .152.123.275.275.275h3.68a.275.275 0 0 0 .275-.275v-3.002a.275.275 0 0 0-.275-.275Zm-.275 3.002H4.81v-2.452h3.13v2.452ZM13.849 12h-3.68a.275.275 0 0 0-.274.275v3.002c0 .152.123.275.274.275h3.68a.275.275 0 0 0 .275-.275v-3.002a.275.275 0 0 0-.275-.275Zm-.275 3.002h-3.13V12.55h3.13v2.452ZM13.85 17.412h-3.68a.275.275 0 0 0-.275.275v3.002c0 .152.123.275.275.275h3.68a.275.275 0 0 0 .274-.275v-3.002a.275.275 0 0 0-.275-.275Zm-.276 3.002h-3.13v-2.452h3.13v2.452ZM19.483 12h-3.68a.275.275 0 0 0-.275.275v3.002c0 .152.123.275.275.275h3.68a.275.275 0 0 0 .275-.275v-3.002a.275.275 0 0 0-.275-.275Zm-.275 3.002h-3.13V12.55h3.13v2.452ZM19.483 17.412h-3.68a.275.275 0 0 0-.274.275v3.002c0 .152.123.275.275.275h3.679a.275.275 0 0 0 .275-.275v-3.002a.275.275 0 0 0-.275-.275Zm-.275 3.002h-3.13v-2.452h3.13v2.452ZM15.655 8.215v-2.67a.275.275 0 0 0-.274-.275h-1.77V3.5a.275.275 0 0 0-.276-.275h-2.67a.275.275 0 0 0-.275.275v1.77H8.62a.275.275 0 0 0-.276.275v2.67c0 .152.123.275.275.275h1.77v1.77c0 .153.124.276.276.276h2.67a.275.275 0 0 0 .275-.275V8.49h1.77a.275.275 0 0 0 .275-.276Zm-.55-.275h-1.77a.275.275 0 0 0-.275.275v1.77h-2.12v-1.77a.275.275 0 0 0-.275-.275h-1.77V5.82h1.77a.275.275 0 0 0 .275-.275v-1.77h2.12v1.77c0 .152.123.275.275.275h1.77v2.12Z"/></g></svg>