<svg width="24" height="24" viewBox="0 0 24 24" fill="none" xmlns="http://www.w3.org/2000/svg">
<path d="M15.7034 18.7493H14.7773L14.7604 10.0294C14.7571 9.69204 14.6428 9.36496 14.4349 9.09782C14.227 8.83069 13.9368 8.63809 13.6084 8.54927V7.24532C13.6102 6.90355 13.4963 6.57104 13.2851 6.30091C13.0738 6.03078 12.7773 5.83862 12.4429 5.75512V1.36963C12.4429 1.2716 12.4036 1.17758 12.3336 1.10826C12.2637 1.03894 12.1688 1 12.0699 1C11.971 1 11.8761 1.03894 11.8062 1.10826C11.7362 1.17758 11.6969 1.2716 11.6969 1.36963V5.75512C11.3625 5.83862 11.066 6.03078 10.8547 6.30091C10.6435 6.57104 10.5297 6.90355 10.5314 7.24532V8.54927C10.203 8.63809 9.91284 8.83069 9.70492 9.09782C9.497 9.36496 9.38272 9.69204 9.37942 10.0294L9.36254 18.7493H8.43644C8.33752 18.7493 8.24266 18.7882 8.17271 18.8575C8.10277 18.9269 8.06348 19.0209 8.06348 19.1189C8.06348 19.2169 8.10277 19.311 8.17271 19.3803C8.24266 19.4496 8.33752 19.4885 8.43644 19.4885H10.3557L10.3664 22.2607H9.3976C9.29869 22.2607 9.20382 22.2997 9.13388 22.369C9.06394 22.4383 9.02464 22.5323 9.02464 22.6304C9.02464 22.7284 9.06394 22.8224 9.13388 22.8917C9.20382 22.9611 9.29869 23 9.3976 23H14.7422C14.8411 23 14.936 22.9611 15.0059 22.8917C15.0759 22.8224 15.1152 22.7284 15.1152 22.6304C15.1152 22.5323 15.0759 22.4383 15.0059 22.369C14.936 22.2997 14.8411 22.2607 14.7422 22.2607H13.7705L13.7599 19.4885H15.7034C15.8023 19.4885 15.8972 19.4496 15.9671 19.3803C16.037 19.311 16.0763 19.2169 16.0763 19.1189C16.0763 19.0209 16.037 18.9269 15.9671 18.8575C15.8972 18.7882 15.8023 18.7493 15.7034 18.7493ZM12.0699 6.44914C12.1748 6.44947 12.2786 6.47036 12.3753 6.51062C12.472 6.55088 12.5598 6.6097 12.6334 6.68371C12.7071 6.75772 12.7653 6.84545 12.8046 6.94183C12.8439 7.03822 12.8635 7.14136 12.8625 7.24532V8.49212H11.2774V7.24532C11.2763 7.14136 11.2959 7.03822 11.3353 6.94183C11.3746 6.84545 11.4327 6.75772 11.5064 6.68371C11.5801 6.6097 11.6678 6.55088 11.7645 6.51062C11.8612 6.47036 11.965 6.44947 12.0699 6.44914ZM10.9233 9.23137H13.2168C13.4308 9.2343 13.635 9.32058 13.7853 9.47155C13.9357 9.62253 14.02 9.82607 14.0201 10.0382L14.026 14.7296H10.1138L10.1199 10.0382C10.12 9.82607 10.2044 9.62253 10.3547 9.47155C10.505 9.32058 10.7093 9.2343 10.9233 9.23137ZM10.1128 15.4688H14.027L14.0314 18.7493H10.1085L10.1128 15.4688ZM13.0246 22.2607H11.1123L11.1017 19.4885H13.014L13.0246 22.2607Z" fill="#2A1A1F" stroke="#2A1A1F" stroke-width="0.5"/>
<path d="M21.6269 11.6338H18.4101C18.3112 11.6338 18.2163 11.6727 18.1463 11.7421C18.0764 11.8114 18.0371 11.9054 18.0371 12.0034C18.0371 12.1014 18.0764 12.1955 18.1463 12.2648C18.2163 12.3341 18.3112 12.373 18.4101 12.373H21.6269C21.7258 12.373 21.8206 12.3341 21.8906 12.2648C21.9605 12.1955 21.9998 12.1014 21.9998 12.0034C21.9998 11.9054 21.9605 11.8114 21.8906 11.7421C21.8206 11.6727 21.7258 11.6338 21.6269 11.6338Z" fill="#2A1A1F" stroke="#2A1A1F" stroke-width="0.5"/>
<path d="M17.501 9.13902C17.5418 9.139 17.5822 9.13237 17.6208 9.11938L20.3714 8.19531C20.4178 8.17973 20.4606 8.15525 20.4975 8.12326C20.5343 8.09127 20.5644 8.0524 20.5861 8.00888C20.6078 7.96535 20.6206 7.91802 20.6238 7.86958C20.6271 7.82115 20.6206 7.77255 20.6049 7.72658C20.5892 7.68061 20.5645 7.63815 20.5322 7.60164C20.4999 7.56513 20.4607 7.53528 20.4168 7.51378C20.3729 7.49229 20.3251 7.47959 20.2763 7.47639C20.2274 7.47319 20.1783 7.47957 20.132 7.49515L17.3814 8.41922C17.2976 8.44728 17.2266 8.50394 17.181 8.57909C17.1355 8.65425 17.1184 8.74299 17.1328 8.82949C17.1472 8.91598 17.1921 8.99459 17.2595 9.05129C17.327 9.10799 17.4126 9.13908 17.501 9.13902Z" fill="#2A1A1F" stroke="#2A1A1F" stroke-width="0.5"/>
<path d="M20.3712 15.8118L17.6206 14.8877C17.5269 14.8563 17.4245 14.863 17.3358 14.9064C17.2471 14.9498 17.1794 15.0263 17.1477 15.1192C17.1159 15.212 17.1227 15.3136 17.1665 15.4015C17.2103 15.4894 17.2875 15.5564 17.3812 15.5879L20.1318 16.512C20.1782 16.5275 20.2272 16.5339 20.2761 16.5307C20.3249 16.5275 20.3727 16.5148 20.4166 16.4933C20.4605 16.4718 20.4997 16.442 20.532 16.4055C20.5643 16.369 20.589 16.3265 20.6047 16.2805C20.6205 16.2346 20.6269 16.186 20.6237 16.1375C20.6204 16.0891 20.6076 16.0418 20.5859 15.9982C20.5642 15.9547 20.5341 15.9158 20.4973 15.8838C20.4604 15.8519 20.4176 15.8274 20.3712 15.8118Z" fill="#2A1A1F" stroke="#2A1A1F" stroke-width="0.5"/>
<path d="M5.9627 12.0034C5.9627 11.9054 5.92341 11.8114 5.85347 11.7421C5.78352 11.6727 5.68866 11.6338 5.58974 11.6338H2.37296C2.27405 11.6338 2.17918 11.6727 2.10924 11.7421C2.03929 11.8114 2 11.9054 2 12.0034C2 12.1014 2.03929 12.1955 2.10924 12.2648C2.17918 12.3341 2.27405 12.373 2.37296 12.373H5.58974C5.68866 12.373 5.78352 12.3341 5.85347 12.2648C5.92341 12.1955 5.9627 12.1014 5.9627 12.0034Z" fill="#2A1A1F" stroke="#2A1A1F" stroke-width="0.5"/>
<path d="M6.66515 8.41922L3.91457 7.49515C3.82089 7.46368 3.71843 7.47038 3.62973 7.51378C3.54103 7.55719 3.47336 7.63373 3.44161 7.72658C3.40986 7.81943 3.41662 7.92097 3.46042 8.00888C3.50421 8.09678 3.58145 8.16385 3.67513 8.19531L6.42571 9.11938C6.5194 9.15085 6.62186 9.14415 6.71056 9.10074C6.79926 9.05734 6.86692 8.9808 6.89867 8.88795C6.93043 8.7951 6.92366 8.69356 6.87987 8.60565C6.83608 8.51775 6.75884 8.45068 6.66515 8.41922Z" fill="#2A1A1F" stroke="#2A1A1F" stroke-width="0.5"/>
<path d="M6.42571 14.8877L3.67513 15.8118C3.62874 15.8274 3.58591 15.8519 3.54907 15.8838C3.51222 15.9158 3.4821 15.9547 3.46042 15.9982C3.43873 16.0418 3.42591 16.0891 3.42269 16.1375C3.41946 16.186 3.42589 16.2346 3.44161 16.2805C3.45733 16.3265 3.48204 16.369 3.51432 16.4055C3.54659 16.442 3.58581 16.4718 3.62973 16.4933C3.67365 16.5148 3.72141 16.5275 3.77028 16.5307C3.81915 16.5339 3.86818 16.5275 3.91457 16.512L6.66515 15.5879C6.75884 15.5564 6.83607 15.4894 6.87987 15.4015C6.92366 15.3136 6.93043 15.212 6.89867 15.1192C6.86692 15.0263 6.79925 14.9498 6.71056 14.9064C6.62186 14.863 6.5194 14.8563 6.42571 14.8877Z" fill="#2A1A1F" stroke="#2A1A1F" stroke-width="0.5"/>
</svg>
