<svg width="22" height="24" viewBox="0 0 22 24" fill="none" xmlns="http://www.w3.org/2000/svg">
    <path d="M14.7034 18.7493H13.7773L13.7604 10.0294C13.7571 9.69204 13.6428 9.36496 13.4349 9.09782C13.227 8.83069 12.9368 8.63809 12.6084 8.54927V7.24532C12.6102 6.90355 12.4963 6.57104 12.2851 6.30091C12.0738 6.03078 11.7773 5.83862 11.4429 5.75512V1.36963C11.4429 1.2716 11.4036 1.17758 11.3336 1.10826C11.2637 1.03894 11.1688 1 11.0699 1C10.971 1 10.8761 1.03894 10.8062 1.10826C10.7362 1.17758 10.6969 1.2716 10.6969 1.36963V5.75512C10.3625 5.83862 10.066 6.03078 9.85475 6.30091C9.64348 6.57104 9.52965 6.90355 9.53145 7.24532V8.54927C9.20304 8.63809 8.91284 8.83069 8.70492 9.09782C8.497 9.36496 8.38272 9.69204 8.37942 10.0294L8.36254 18.7493H7.43644C7.33752 18.7493 7.24266 18.7882 7.17271 18.8575C7.10277 18.9269 7.06348 19.0209 7.06348 19.1189C7.06348 19.2169 7.10277 19.311 7.17271 19.3803C7.24266 19.4496 7.33752 19.4885 7.43644 19.4885H9.35574L9.36641 22.2607H8.3976C8.29869 22.2607 8.20382 22.2997 8.13388 22.369C8.06394 22.4383 8.02464 22.5323 8.02464 22.6304C8.02464 22.7284 8.06394 22.8224 8.13388 22.8917C8.20382 22.9611 8.29869 23 8.3976 23H13.7422C13.8411 23 13.936 22.9611 14.0059 22.8917C14.0759 22.8224 14.1152 22.7284 14.1152 22.6304C14.1152 22.5323 14.0759 22.4383 14.0059 22.369C13.936 22.2997 13.8411 22.2607 13.7422 22.2607H12.7705L12.7599 19.4885H14.7034C14.8023 19.4885 14.8972 19.4496 14.9671 19.3803C15.037 19.311 15.0763 19.2169 15.0763 19.1189C15.0763 19.0209 15.037 18.9269 14.9671 18.8575C14.8972 18.7882 14.8023 18.7493 14.7034 18.7493ZM11.0699 6.44914C11.1748 6.44947 11.2786 6.47036 11.3753 6.51062C11.472 6.55088 11.5598 6.6097 11.6334 6.68371C11.7071 6.75772 11.7653 6.84545 11.8046 6.94183C11.8439 7.03822 11.8635 7.14136 11.8625 7.24532V8.49212H10.2774V7.24532C10.2763 7.14136 10.2959 7.03822 10.3353 6.94183C10.3746 6.84545 10.4327 6.75772 10.5064 6.68371C10.5801 6.6097 10.6678 6.55088 10.7645 6.51062C10.8612 6.47036 10.965 6.44947 11.0699 6.44914ZM9.92329 9.23137H12.2168C12.4308 9.2343 12.635 9.32058 12.7853 9.47155C12.9357 9.62253 13.02 9.82607 13.0201 10.0382L13.026 14.7296H9.11378L9.11993 10.0382C9.12005 9.82607 9.20439 9.62253 9.35472 9.47155C9.50505 9.32058 9.70929 9.2343 9.92329 9.23137ZM9.1128 15.4688H13.027L13.0314 18.7493H9.10847L9.1128 15.4688ZM12.0246 22.2607H10.1123L10.1017 19.4885H12.014L12.0246 22.2607Z" fill="#2A1A1F" stroke="#2A1A1F" stroke-width="0.5"/>
    <path d="M20.6269 11.6338H17.4101C17.3112 11.6338 17.2163 11.6727 17.1463 11.7421C17.0764 11.8114 17.0371 11.9054 17.0371 12.0034C17.0371 12.1014 17.0764 12.1955 17.1463 12.2648C17.2163 12.3341 17.3112 12.373 17.4101 12.373H20.6269C20.7258 12.373 20.8206 12.3341 20.8906 12.2648C20.9605 12.1955 20.9998 12.1014 20.9998 12.0034C20.9998 11.9054 20.9605 11.8114 20.8906 11.7421C20.8206 11.6727 20.7258 11.6338 20.6269 11.6338Z" fill="#2A1A1F" stroke="#2A1A1F" stroke-width="0.5"/>
    <path d="M16.501 9.13902C16.5418 9.139 16.5822 9.13237 16.6208 9.11938L19.3714 8.19531C19.4178 8.17973 19.4606 8.15525 19.4975 8.12326C19.5343 8.09127 19.5644 8.0524 19.5861 8.00888C19.6078 7.96535 19.6206 7.91802 19.6238 7.86958C19.6271 7.82115 19.6206 7.77255 19.6049 7.72658C19.5892 7.68061 19.5645 7.63815 19.5322 7.60164C19.4999 7.56513 19.4607 7.53528 19.4168 7.51378C19.3729 7.49229 19.3251 7.47959 19.2763 7.47639C19.2274 7.47319 19.1783 7.47957 19.132 7.49515L16.3814 8.41922C16.2976 8.44728 16.2266 8.50394 16.181 8.57909C16.1355 8.65425 16.1184 8.74299 16.1328 8.82949C16.1472 8.91598 16.1921 8.99459 16.2595 9.05129C16.327 9.10799 16.4126 9.13908 16.501 9.13902Z" fill="#2A1A1F" stroke="#2A1A1F" stroke-width="0.5"/>
    <path d="M19.3712 15.8118L16.6206 14.8877C16.5269 14.8563 16.4245 14.863 16.3358 14.9064C16.2471 14.9498 16.1794 15.0263 16.1477 15.1192C16.1159 15.212 16.1227 15.3136 16.1665 15.4015C16.2103 15.4894 16.2875 15.5564 16.3812 15.5879L19.1318 16.512C19.1782 16.5275 19.2272 16.5339 19.2761 16.5307C19.3249 16.5275 19.3727 16.5148 19.4166 16.4933C19.4605 16.4718 19.4997 16.442 19.532 16.4055C19.5643 16.369 19.589 16.3265 19.6047 16.2805C19.6205 16.2346 19.6269 16.186 19.6237 16.1375C19.6204 16.0891 19.6076 16.0418 19.5859 15.9982C19.5642 15.9547 19.5341 15.9158 19.4973 15.8838C19.4604 15.8519 19.4176 15.8274 19.3712 15.8118Z" fill="#2A1A1F" stroke="#2A1A1F" stroke-width="0.5"/>
    <path d="M4.9627 12.0034C4.9627 11.9054 4.92341 11.8114 4.85347 11.7421C4.78352 11.6727 4.68866 11.6338 4.58974 11.6338H1.37296C1.27405 11.6338 1.17918 11.6727 1.10924 11.7421C1.03929 11.8114 1 11.9054 1 12.0034C1 12.1014 1.03929 12.1955 1.10924 12.2648C1.17918 12.3341 1.27405 12.373 1.37296 12.373H4.58974C4.68866 12.373 4.78352 12.3341 4.85347 12.2648C4.92341 12.1955 4.9627 12.1014 4.9627 12.0034Z" fill="#2A1A1F" stroke="#2A1A1F" stroke-width="0.5"/>
    <path d="M5.66515 8.41922L2.91457 7.49515C2.82089 7.46368 2.71843 7.47038 2.62973 7.51378C2.54103 7.55719 2.47336 7.63373 2.44161 7.72658C2.40986 7.81943 2.41662 7.92097 2.46042 8.00888C2.50421 8.09678 2.58145 8.16385 2.67513 8.19531L5.42571 9.11938C5.5194 9.15085 5.62186 9.14415 5.71056 9.10074C5.79926 9.05734 5.86692 8.9808 5.89867 8.88795C5.93043 8.7951 5.92366 8.69356 5.87987 8.60565C5.83608 8.51775 5.75884 8.45068 5.66515 8.41922Z" fill="#2A1A1F" stroke="#2A1A1F" stroke-width="0.5"/>
    <path d="M5.42571 14.8877L2.67513 15.8118C2.62874 15.8274 2.58591 15.8519 2.54907 15.8838C2.51222 15.9158 2.4821 15.9547 2.46042 15.9982C2.43873 16.0418 2.42591 16.0891 2.42269 16.1375C2.41946 16.186 2.42589 16.2346 2.44161 16.2805C2.45733 16.3265 2.48204 16.369 2.51432 16.4055C2.54659 16.442 2.58581 16.4718 2.62973 16.4933C2.67365 16.5148 2.72141 16.5275 2.77028 16.5307C2.81915 16.5339 2.86818 16.5275 2.91457 16.512L5.66515 15.5879C5.75884 15.5564 5.83607 15.4894 5.87987 15.4015C5.92366 15.3136 5.93043 15.212 5.89867 15.1192C5.86692 15.0263 5.79925 14.9498 5.71056 14.9064C5.62186 14.863 5.5194 14.8563 5.42571 14.8877Z" fill="#2A1A1F" stroke="#2A1A1F" stroke-width="0.5"/>
</svg>
