<svg width="24" height="24" viewBox="0 0 24 24" fill="none" xmlns="http://www.w3.org/2000/svg">
<path d="M12 7.5C11.6843 7.5 11.4138 7.61459 11.1793 7.86141L4.30665 14.7194C4.10823 14.9133 4 15.1601 4 15.451C4 16.0328 4.469 16.5 5.07328 16.5C5.37091 16.5 5.63247 16.3766 5.83991 16.1827L12 10.0034L18.1601 16.1827C18.3675 16.3766 18.6381 16.5 18.9267 16.5C19.531 16.5 20 16.0328 20 15.451C20 15.1601 19.8918 14.9133 19.6933 14.7194L12.8298 7.86141C12.5862 7.61459 12.3157 7.5 12 7.5Z" fill="#909590"/>
</svg>
