<svg width="24" height="24" viewBox="0 0 24 24" fill="none" xmlns="http://www.w3.org/2000/svg">
<path d="M12 17.5C12.3157 17.5 12.5862 17.3854 12.8207 17.1386L19.6933 10.2806C19.8918 10.0867 20 9.83986 20 9.54897C20 8.96719 19.531 8.5 18.9267 8.5C18.6291 8.5 18.3675 8.62341 18.1601 8.81734L12 14.9966L5.83991 8.81734C5.63247 8.62341 5.36189 8.5 5.07328 8.5C4.469 8.5 4 8.96719 4 9.54897C4 9.83986 4.10823 10.0867 4.30665 10.2806L11.1702 17.1386C11.4138 17.3854 11.6843 17.5 12 17.5Z" fill="#909590"/>
</svg>
