<svg width="18" height="23" viewBox="0 0 18 23" fill="none" xmlns="http://www.w3.org/2000/svg">
<path d="M9 10.7672C9.65171 10.7672 10.2888 10.5669 10.8307 10.1915C11.3725 9.8161 11.7949 9.28256 12.0443 8.65832C12.2937 8.03408 12.3589 7.34719 12.2318 6.6845C12.1046 6.02181 11.7908 5.41309 11.33 4.93532C10.8692 4.45755 10.282 4.13219 9.64284 4.00037C9.00365 3.86855 8.34112 3.93621 7.73902 4.19477C7.13692 4.45334 6.62229 4.89121 6.26022 5.45301C5.89815 6.01481 5.70489 6.67531 5.70489 7.35098C5.70585 8.25672 6.05332 9.12508 6.67106 9.76553C7.28881 10.406 8.12638 10.7662 9 10.7672ZM9 5.06348C9.43725 5.06348 9.86467 5.19795 10.2282 5.44988C10.5917 5.70182 10.875 6.05988 11.0421 6.47877C11.2093 6.89766 11.2528 7.35855 11.1673 7.80311C11.0817 8.24767 10.8709 8.65592 10.5614 8.97621C10.252 9.2965 9.85786 9.51442 9.42893 9.60241C8.99999 9.69039 8.55552 9.64448 8.15176 9.47049C7.748 9.29649 7.40309 9.00223 7.16069 8.62495C6.91829 8.24766 6.78928 7.8043 6.79 7.35098C6.79096 6.74395 7.02422 6.16212 7.43857 5.73324C7.85292 5.30436 8.4145 5.06348 9 5.06348ZM13.3151 16.3135C15.1526 14.1797 16.9032 11.1422 16.9032 8.19473C16.9032 6.02161 16.0705 3.9375 14.5884 2.40087C13.1063 0.864244 11.0961 0.000976562 9 0.000976562C6.90394 0.000976563 4.89374 0.864244 3.4116 2.40087C1.92946 3.9375 1.09681 6.02161 1.09681 8.19473C1.09681 11.0972 2.83298 14.1272 4.74638 16.3022C3.11511 16.6247 0.5 17.3747 0.5 18.9647C0.5 20.956 4.77532 22.0022 9 22.0022C13.2247 22.0022 17.5 20.956 17.5 18.9647C17.5 17.3747 14.95 16.6247 13.3151 16.3097V16.3135ZM9 1.12223C10.8074 1.1252 12.5399 1.8709 13.8179 3.1959C15.096 4.52091 15.8152 6.31714 15.8181 8.19098C15.8181 11.3747 13.4706 14.7497 11.456 16.6735C10.2009 17.8735 9.28574 18.2822 9.0434 18.2635C7.81723 18.1585 2.17106 13.0697 2.17106 8.19098C2.17394 6.31519 2.89468 4.51726 4.17505 3.19193C5.45541 1.86661 7.19073 1.12222 9 1.12223ZM9 20.8772C4.20383 20.8772 1.58511 19.6135 1.58511 18.9647C1.58511 18.6235 2.54723 17.7685 5.52766 17.3035C5.57269 17.296 5.61651 17.2821 5.65787 17.2622C6.94191 18.5147 8.18979 19.321 8.9566 19.3847H9.05787C10.0634 19.3847 11.4451 18.211 12.1938 17.5097L12.4072 17.2997H12.4723C15.4491 17.7647 16.4149 18.6197 16.4149 18.961C16.4149 19.6247 13.7962 20.8772 9 20.8772Z" fill="#2A1A1F"/>
</svg>
