<svg width="24" height="24" viewBox="0 0 24 24" fill="none" xmlns="http://www.w3.org/2000/svg">
<path d="M21.5612 22.9989H2.43881C1.64514 22.9989 1 22.3538 1 21.5601V4.29428C1 3.50061 1.64519 2.85547 2.43881 2.85547H21.5612C22.3549 2.85547 23 3.50061 23 4.29428V21.5601C23 22.3538 22.3548 22.9989 21.5612 22.9989ZM2.43881 3.50528C2.00255 3.50528 1.64976 3.85801 1.64976 4.29428V21.5601C1.64976 21.9964 2.0025 22.3491 2.43881 22.3491H21.5612C21.9975 22.3491 22.3502 21.9964 22.3502 21.5601V4.29428C22.3502 3.85801 21.9975 3.50528 21.5612 3.50528H2.43881Z" fill="#2A1A1F" stroke="#2A1A1F" stroke-width="0.4"/>
<path d="M5.03826 5.36292C4.85725 5.36292 4.71338 5.21901 4.71338 5.03799V1.32493C4.71338 1.14391 4.85725 1 5.03826 1C5.21927 1 5.36319 1.14387 5.36319 1.32493V5.03799C5.36319 5.21901 5.21927 5.36292 5.03826 5.36292Z" fill="#2A1A1F" stroke="#2A1A1F" stroke-width="0.4"/>
<path d="M18.9621 5.36292C18.7811 5.36292 18.6372 5.21901 18.6372 5.03799V1.32493C18.6372 1.14391 18.7811 1 18.9621 1C19.1431 1 19.2871 1.14387 19.2871 1.32493V5.03799C19.287 5.21901 19.1431 5.36292 18.9621 5.36292Z" fill="#2A1A1F" stroke="#2A1A1F" stroke-width="0.4"/>
<path d="M22.6751 8.61172H1.32493C1.14391 8.61172 1 8.46785 1 8.28684C1 8.10583 1.14387 7.96191 1.32493 7.96191H22.6751C22.8561 7.96191 23 8.10578 23 8.28684C23 8.46781 22.8561 8.61172 22.6751 8.61172Z" fill="#2A1A1F" stroke="#2A1A1F" stroke-width="0.4"/>
<path d="M7.82279 11.0713H6.89453V11.9995H7.82279V11.0713Z" fill="#2A1A1F" stroke="#2A1A1F" stroke-width="0.4"/>
<path d="M9.67923 11.0713H8.75098V11.9995H9.67923V11.0713Z" fill="#2A1A1F" stroke="#2A1A1F" stroke-width="0.4"/>
<path d="M11.5362 11.0713H10.6079V11.9995H11.5362V11.0713Z" fill="#2A1A1F" stroke="#2A1A1F" stroke-width="0.4"/>
<path d="M13.3926 11.0713H12.4644V11.9995H13.3926V11.0713Z" fill="#2A1A1F" stroke="#2A1A1F" stroke-width="0.4"/>
<path d="M15.2491 11.0713H14.3208V11.9995H15.2491V11.0713Z" fill="#2A1A1F" stroke="#2A1A1F" stroke-width="0.4"/>
<path d="M17.1055 11.0713H16.1772V11.9995H17.1055V11.0713Z" fill="#2A1A1F" stroke="#2A1A1F" stroke-width="0.4"/>
<path d="M7.82279 12.9277H6.89453V13.856H7.82279V12.9277Z" fill="#2A1A1F" stroke="#2A1A1F" stroke-width="0.4"/>
<path d="M9.67923 12.9277H8.75098V13.856H9.67923V12.9277Z" fill="#2A1A1F" stroke="#2A1A1F" stroke-width="0.4"/>
<path d="M11.5362 12.9277H10.6079V13.856H11.5362V12.9277Z" fill="#2A1A1F" stroke="#2A1A1F" stroke-width="0.4"/>
<path d="M13.3926 12.9277H12.4644V13.856H13.3926V12.9277Z" fill="#2A1A1F" stroke="#2A1A1F" stroke-width="0.4"/>
<path d="M15.2491 12.9277H14.3208V13.856H15.2491V12.9277Z" fill="#2A1A1F" stroke="#2A1A1F" stroke-width="0.4"/>
<path d="M17.1055 12.9277H16.1772V13.856H17.1055V12.9277Z" fill="#2A1A1F" stroke="#2A1A1F" stroke-width="0.4"/>
<path d="M7.82279 14.7852H6.89453V15.7134H7.82279V14.7852Z" fill="#2A1A1F" stroke="#2A1A1F" stroke-width="0.4"/>
<path d="M9.67923 14.7852H8.75098V15.7134H9.67923V14.7852Z" fill="#2A1A1F" stroke="#2A1A1F" stroke-width="0.4"/>
<path d="M11.5357 14.7852H10.6074V15.7134H11.5357V14.7852Z" fill="#2A1A1F" stroke="#2A1A1F" stroke-width="0.4"/>
<path d="M13.3921 14.7852H12.4639V15.7134H13.3921V14.7852Z" fill="#2A1A1F" stroke="#2A1A1F" stroke-width="0.4"/>
<path d="M15.2491 14.7852H14.3208V15.7134H15.2491V14.7852Z" fill="#2A1A1F" stroke="#2A1A1F" stroke-width="0.4"/>
<path d="M17.1055 14.7852H16.1772V15.7134H17.1055V14.7852Z" fill="#2A1A1F" stroke="#2A1A1F" stroke-width="0.4"/>
<path d="M7.82279 16.6406H6.89453V17.5688H7.82279V16.6406Z" fill="#2A1A1F" stroke="#2A1A1F" stroke-width="0.4"/>
<path d="M9.67923 16.6406H8.75098V17.5688H9.67923V16.6406Z" fill="#2A1A1F" stroke="#2A1A1F" stroke-width="0.4"/>
<path d="M11.5362 16.6406H10.6079V17.5688H11.5362V16.6406Z" fill="#2A1A1F" stroke="#2A1A1F" stroke-width="0.4"/>
<path d="M13.3926 16.6406H12.4644V17.5688H13.3926V16.6406Z" fill="#2A1A1F" stroke="#2A1A1F" stroke-width="0.4"/>
<path d="M15.2491 16.6406H14.3208V17.5688H15.2491V16.6406Z" fill="#2A1A1F" stroke="#2A1A1F" stroke-width="0.4"/>
<path d="M17.1055 16.6406H16.1772V17.5688H17.1055V16.6406Z" fill="#2A1A1F" stroke="#2A1A1F" stroke-width="0.4"/>
<path d="M7.82279 18.498H6.89453V19.4263H7.82279V18.498Z" fill="#2A1A1F" stroke="#2A1A1F" stroke-width="0.4"/>
<path d="M9.67923 18.498H8.75098V19.4263H9.67923V18.498Z" fill="#2A1A1F" stroke="#2A1A1F" stroke-width="0.4"/>
<path d="M11.5357 18.498H10.6074V19.4263H11.5357V18.498Z" fill="#2A1A1F" stroke="#2A1A1F" stroke-width="0.4"/>
<path d="M13.3921 18.498H12.4639V19.4263H13.3921V18.498Z" fill="#2A1A1F" stroke="#2A1A1F" stroke-width="0.4"/>
<path d="M15.2491 18.498H14.3208V19.4263H15.2491V18.498Z" fill="#2A1A1F" stroke="#2A1A1F" stroke-width="0.4"/>
<path d="M17.1055 18.498H16.1772V19.4263H17.1055V18.498Z" fill="#2A1A1F" stroke="#2A1A1F" stroke-width="0.4"/>
</svg>
