<svg width="18" height="18" viewBox="0 0 18 18" fill="none" xmlns="http://www.w3.org/2000/svg">
<path d="M8.99998 1C6.87898 1.00238 4.84554 1.8482 3.34576 3.35187C1.84599 4.85555 1.00238 6.89429 1 9.02081C1.43926 19.6613 16.5623 19.6582 17 9.02075C16.9976 6.89424 16.154 4.85551 14.6542 3.35184C13.1544 1.84818 11.121 1.00238 8.99998 1ZM8.99998 16.2711C7.08273 16.2689 5.24462 15.5044 3.8889 14.1451C2.53318 12.7859 1.77056 10.9431 1.76835 9.02081C2.16562 -0.597905 15.8358 -0.59512 16.2316 9.02086C16.2294 10.9431 15.4668 12.786 14.1111 14.1452C12.7553 15.5044 10.9172 16.2689 8.99998 16.2711V16.2711ZM12.2516 6.30542L9.54324 9.02081L12.2516 11.7362C12.3237 11.8085 12.3641 11.9064 12.3641 12.0086C12.3641 12.1107 12.3237 12.2087 12.2516 12.2809C12.1796 12.3531 12.0819 12.3937 11.98 12.3937C11.8781 12.3937 11.7804 12.3531 11.7084 12.2809L8.99998 9.56547L6.29162 12.2809C6.25594 12.3167 6.2136 12.345 6.16699 12.3644C6.12039 12.3837 6.07043 12.3937 6.01999 12.3937C5.96954 12.3937 5.91959 12.3837 5.87299 12.3644C5.82638 12.345 5.78403 12.3167 5.74836 12.2809C5.67632 12.2087 5.63585 12.1107 5.63585 12.0086C5.63585 11.958 5.64579 11.9079 5.6651 11.8612C5.6844 11.8144 5.7127 11.772 5.74837 11.7362L8.45676 9.02081L5.74839 6.30539C5.71272 6.26963 5.68442 6.22717 5.66512 6.18045C5.64581 6.13372 5.63588 6.08364 5.63588 6.03306C5.63588 5.93092 5.67635 5.83296 5.74839 5.76073C5.82043 5.6885 5.91813 5.64792 6.02001 5.64792C6.07046 5.64792 6.12041 5.65789 6.16702 5.67724C6.21362 5.69659 6.25597 5.72496 6.29164 5.76073L8.99998 8.47615L11.7084 5.76073C11.7809 5.69073 11.8778 5.65206 11.9785 5.65301C12.0791 5.65396 12.1754 5.69446 12.2465 5.76582C12.3177 5.83717 12.3581 5.93366 12.3591 6.03456C12.36 6.13546 12.3214 6.23271 12.2516 6.30539L12.2516 6.30542Z" fill="#2A1A1F" stroke="#2A1A1F" stroke-width="0.5"/>
</svg>
