<svg width="24" height="24" viewBox="0 0 24 24" fill="none" xmlns="http://www.w3.org/2000/svg">
<path d="M12.0006 1C9.41394 1 7.30612 3.11498 7.30612 5.71545C7.30612 8.31592 9.41394 10.4272 12.0006 10.4272C14.5872 10.4272 16.695 8.31592 16.695 5.71545C16.695 3.11498 14.5872 1 12.0006 1ZM12.0006 1.75862C14.1851 1.75862 15.9451 3.52829 15.9451 5.71545C15.9451 7.9026 14.1851 9.66858 12.0006 9.66858C9.81597 9.66858 8.05605 7.9026 8.05605 5.71545C8.05605 3.52829 9.81597 1.75862 12.0006 1.75862ZM11.9976 11.511C7.01981 11.511 2.99902 15.5445 2.99902 20.5441V22.6214C2.99912 22.6713 3.00895 22.7207 3.02793 22.7667C3.04691 22.8127 3.07467 22.8545 3.10964 22.8897C3.1446 22.9248 3.18607 22.9527 3.23169 22.9716C3.2773 22.9905 3.32615 23.0002 3.37546 23H20.6255C20.7246 22.9996 20.8195 22.9596 20.8894 22.8886C20.9594 22.8177 20.9988 22.7216 20.999 22.6214V20.5441C20.999 15.5444 16.9753 11.511 11.9976 11.511ZM11.6241 12.2786V22.2406H3.74903V20.5441C3.74903 17.4942 5.37056 14.844 7.80193 13.4091V15.7368C7.05032 15.9088 6.48441 16.5883 6.48441 17.397C6.48441 18.3351 7.24632 19.1017 8.17543 19.1017C9.10455 19.1017 9.86938 18.3351 9.86938 17.397C9.86938 16.5896 9.30223 15.9109 8.55187 15.7375V13.0172C9.49244 12.5861 10.5294 12.3268 11.6241 12.2786H11.6241ZM12.374 12.2786C13.6258 12.3341 14.8023 12.6655 15.8454 13.2142V15.7309C14.9548 15.9062 14.2759 16.6951 14.2759 17.6408V20.1411C14.2758 20.1614 14.2773 20.1817 14.2803 20.2019C14.2808 20.2043 14.2814 20.2068 14.2819 20.2093C14.2819 20.2098 14.2819 20.2104 14.2819 20.2109C14.2852 20.229 14.2899 20.2468 14.2958 20.2642C14.297 20.268 14.2982 20.2717 14.2995 20.2754C14.3 20.2767 14.3005 20.2779 14.301 20.2791C14.3076 20.2962 14.3155 20.3128 14.3245 20.3288C14.3254 20.3303 14.3264 20.3317 14.3274 20.3332C14.3381 20.352 14.3504 20.3699 14.3641 20.3866C14.3771 20.402 14.3913 20.4164 14.4066 20.4295C14.4099 20.4323 14.4133 20.435 14.4168 20.4377C14.4304 20.4488 14.4449 20.459 14.46 20.4681C14.4629 20.4698 14.4658 20.4716 14.4688 20.4732C14.4863 20.4834 14.5047 20.492 14.5237 20.4992C14.543 20.5063 14.5628 20.5117 14.583 20.5155C14.5849 20.5158 14.5869 20.516 14.5888 20.5163C14.6099 20.52 14.6312 20.522 14.6525 20.5221H15.3666C15.4161 20.5223 15.4651 20.5126 15.5109 20.4935C15.5566 20.4745 15.5982 20.4464 15.6332 20.411C15.6682 20.3756 15.6959 20.3336 15.7148 20.2873C15.7336 20.241 15.7432 20.1914 15.743 20.1413C15.7429 20.0915 15.7331 20.0421 15.7141 19.9961C15.6952 19.95 15.6674 19.9082 15.6324 19.8731C15.5975 19.8379 15.556 19.8101 15.5104 19.7912C15.4648 19.7722 15.4159 19.7626 15.3666 19.7628H15.026V17.641C15.026 16.9787 15.5494 16.4534 16.2191 16.4534C16.8887 16.4534 17.4121 16.9787 17.4121 17.641V19.7628H17.0715C17.0222 19.7626 16.9734 19.7722 16.9278 19.7912C16.8821 19.8101 16.8407 19.8379 16.8057 19.8731C16.7707 19.9082 16.743 19.95 16.724 19.9961C16.705 20.0421 16.6952 20.0915 16.6951 20.1413C16.6949 20.1914 16.7045 20.241 16.7234 20.2873C16.7422 20.3336 16.7699 20.3756 16.8049 20.411C16.8399 20.4464 16.8815 20.4745 16.9272 20.4935C16.973 20.5126 17.022 20.5223 17.0715 20.5221H17.7856C17.7932 20.5221 17.8007 20.5219 17.8083 20.5214C17.811 20.5212 17.8137 20.5209 17.8164 20.5206C17.8183 20.5204 17.8203 20.5201 17.8222 20.5199C17.8288 20.5193 17.8354 20.5185 17.8419 20.5176C17.8464 20.5169 17.8507 20.5161 17.8551 20.5153C17.8561 20.5153 17.8571 20.5153 17.8581 20.5153C17.8618 20.5143 17.8655 20.5133 17.8692 20.5123C17.8694 20.5123 17.8697 20.5123 17.8699 20.5123C17.8721 20.5118 17.8744 20.5112 17.8766 20.5107C17.8783 20.5102 17.88 20.5096 17.8817 20.5091C17.8836 20.5086 17.8855 20.5081 17.8875 20.5075C17.8894 20.507 17.8914 20.5065 17.8933 20.506C17.895 20.5054 17.8967 20.5049 17.8984 20.5044C17.9006 20.5036 17.9028 20.5029 17.9051 20.5021C17.91 20.5005 17.9149 20.4987 17.9197 20.4969C17.9224 20.4959 17.9251 20.4949 17.9278 20.4939C17.9322 20.492 17.9366 20.4901 17.941 20.488C17.9439 20.4866 17.9469 20.4851 17.9498 20.4836C17.9537 20.4817 17.9576 20.4797 17.9615 20.4777C17.9647 20.476 17.9679 20.4743 17.971 20.4725C17.9811 20.4668 17.9908 20.4607 18.0003 20.454C18.0008 20.4538 18.0013 20.4535 18.0019 20.4533C18.0076 20.4492 18.0132 20.445 18.0187 20.4407C18.0195 20.4399 18.0202 20.4391 18.021 20.4384C18.0229 20.4369 18.0249 20.4354 18.0268 20.4339C18.028 20.4329 18.0292 20.4319 18.0305 20.4309C18.0324 20.4292 18.0344 20.4275 18.0363 20.4258C18.0373 20.4248 18.0383 20.4238 18.0392 20.4227C18.0398 20.4225 18.0403 20.4222 18.0408 20.422C18.0448 20.4181 18.0487 20.4141 18.0526 20.4101C18.054 20.4086 18.0555 20.4071 18.057 20.4056C18.061 20.4015 18.0649 20.3973 18.0687 20.393C18.0702 20.3911 18.0717 20.3891 18.0731 20.3872C18.0748 20.3852 18.0765 20.3832 18.0782 20.3813C18.0792 20.3803 18.0802 20.3793 18.0812 20.3783C18.082 20.3773 18.0827 20.3763 18.0835 20.3753C18.0852 20.373 18.0869 20.3708 18.0886 20.3685C18.0913 20.3646 18.094 20.3606 18.0966 20.3566C18.0986 20.3539 18.1006 20.3512 18.1025 20.3484C18.1047 20.3448 18.107 20.341 18.1091 20.3373C18.1111 20.3339 18.113 20.3304 18.1149 20.3269C18.1167 20.3238 18.1184 20.3206 18.12 20.3173C18.1203 20.3171 18.1205 20.3168 18.1208 20.3166C18.1241 20.31 18.1273 20.3033 18.1303 20.2966C18.1305 20.2958 18.1308 20.2951 18.131 20.2943C18.1318 20.2926 18.1325 20.2909 18.1333 20.2891C18.1341 20.2872 18.1348 20.2852 18.1356 20.2833C18.1366 20.2805 18.1376 20.2778 18.1385 20.2751C18.1391 20.2738 18.1396 20.2726 18.1401 20.2714C18.1425 20.2655 18.1447 20.2596 18.1468 20.2536C18.1473 20.2519 18.1478 20.2501 18.1483 20.2484C18.1499 20.2428 18.1514 20.2371 18.1527 20.2314C18.1532 20.2291 18.1538 20.2269 18.1543 20.2246C18.1554 20.2192 18.1564 20.2138 18.1572 20.2083C18.1578 20.2058 18.1583 20.2034 18.1588 20.2009C18.1594 20.1967 18.1599 20.1925 18.1604 20.1883C18.1609 20.1843 18.1615 20.1803 18.1619 20.1764C18.1627 20.1682 18.1632 20.1601 18.1635 20.1519C18.1635 20.1479 18.1635 20.1439 18.1635 20.14V17.6396C18.1635 16.6947 17.4865 15.9059 16.597 15.7298V13.6606C18.8047 15.1413 20.2507 17.6641 20.2507 20.543V22.2395H12.3752L12.374 12.2786ZM8.17536 16.4532C8.70146 16.4532 9.11938 16.8713 9.11938 17.397C9.11938 17.9228 8.70146 18.3431 8.17536 18.3431C7.64927 18.3431 7.23428 17.9228 7.23428 17.397C7.23428 16.8713 7.64927 16.4532 8.17536 16.4532Z" fill="#2A1A1F" stroke="#2A1A1F" stroke-width="0.3"/>
</svg>
