<svg viewBox="0 0 64 64" fill="none" xmlns="http://www.w3.org/2000/svg"><path d="m49.904 15.284-11.48-9.84A6 6 0 0 0 34.52 4H18a6 6 0 0 0-6 6v44a6 6 0 0 0 6 6h28a6 6 0 0 0 6-6V19.84a5.987 5.987 0 0 0-2.096-4.556ZM46.928 18H40a2 2 0 0 1-2-2v-5.652L46.928 18ZM48 54a2 2 0 0 1-2 2H18a2 2 0 0 1-2-2V10a2 2 0 0 1 2-2h16v8a6 6 0 0 0 6 6h8v32Z" fill="#175676"/><path d="M24 30a2 2 0 0 0 0 4h16a2 2 0 0 0 0-4H24ZM40 38H24a2 2 0 0 0 0 4h16a2 2 0 0 0 0-4ZM34 46H24a2 2 0 0 0 0 4h10a2 2 0 0 0 0-4Z" fill="#175676"/></svg>