<svg width="16" height="16" viewBox="0 0 16 16" fill="none" xmlns="http://www.w3.org/2000/svg">
<path d="M15.8047 15.0272L10.7841 9.99643C11.9834 8.57893 12.4855 6.71671 12.095 4.7989C11.9555 4.13184 11.7045 3.49257 11.3419 2.90889C9.16627 -0.537597 4.53608 -0.926717 1.80258 1.76933C-0.596192 4.13184 -0.596192 7.99525 1.77469 10.3856C2.91829 11.5529 4.4524 12.1922 6.09807 12.1922H6.12596C7.57639 12.1922 8.91524 11.6919 10.0309 10.8025L15.0516 15.8332C15.1632 15.9444 15.3027 16 15.4421 16C15.5816 16 15.7211 15.9444 15.8326 15.8332C15.9442 15.7221 16 15.5831 16 15.4441C15.9442 15.2773 15.8884 15.1384 15.8047 15.0272ZM2.55569 9.60731C0.603196 7.66171 0.631089 4.49317 2.58358 2.54757C3.55983 1.57477 4.8429 1.10227 6.09807 1.10227C7.38114 1.10227 8.6642 1.60256 9.64045 2.57536C10.5888 3.52037 11.0909 4.77111 11.0909 6.10524C11.0909 7.43936 10.5609 8.6901 9.61256 9.63511C7.66006 11.5807 4.48029 11.5529 2.55569 9.60731Z" fill="#2A1A1F"/>
</svg>