<svg viewBox="0 0 421 353" fill="none" xmlns="http://www.w3.org/2000/svg"><g clip-path="url(#a)"><g filter="url(#b)"><rect x="70" y="17" width="338" height="275" rx="8" fill="#F2F2F2"/></g><g filter="url(#c)"><rect x="13" y="61" width="338" height="275" rx="8" fill="#FCFCFC" shape-rendering="crispEdges"/><circle cx="53" cy="101" r="24" fill="#D9D9D9"/><rect x="89" y="94" width="145" height="14" rx="2" fill="#D9D9D9"/><rect x="29" y="141" width="85" height="14" rx="2" fill="#F2F2F2"/><rect x="29" y="159" width="145" height="14" rx="2" fill="#D9D9D9"/><rect x="29" y="189" width="85" height="14" rx="2" fill="#F2F2F2"/><rect x="29" y="207" width="244" height="14" rx="2" fill="#D9D9D9"/><path d="M29 280a8 8 0 0 1 8-8h129a8 8 0 0 1 8 8v32a8 8 0 0 1-8 8H37a8 8 0 0 1-8-8v-32Z" fill="#F2F2F2"/><path d="M190 280a8 8 0 0 1 8-8h129a8 8 0 0 1 8 8v32a8 8 0 0 1-8 8H198a8 8 0 0 1-8-8v-32Z" fill="#D4D5D4"/><rect x="13.5" y="61.5" width="337" height="274" rx="7.5" stroke="#D4D5D4" shape-rendering="crispEdges"/></g></g><defs><filter id="b" x="54" y="5" width="370" height="307" filterUnits="userSpaceOnUse" color-interpolation-filters="sRGB"><feFlood flood-opacity="0" result="BackgroundImageFix"/><feColorMatrix in="SourceAlpha" values="0 0 0 0 0 0 0 0 0 0 0 0 0 0 0 0 0 0 127 0" result="hardAlpha"/><feOffset dy="4"/><feGaussianBlur stdDeviation="8"/><feComposite in2="hardAlpha" operator="out"/><feColorMatrix values="0 0 0 0 0.113725 0 0 0 0 0.396078 0 0 0 0 0.537255 0 0 0 0.15 0"/><feBlend in2="BackgroundImageFix" result="effect1_dropShadow_1_134"/><feBlend in="SourceGraphic" in2="effect1_dropShadow_1_134" result="shape"/></filter><filter id="c" x="-3" y="49" width="370" height="307" filterUnits="userSpaceOnUse" color-interpolation-filters="sRGB"><feFlood flood-opacity="0" result="BackgroundImageFix"/><feColorMatrix in="SourceAlpha" values="0 0 0 0 0 0 0 0 0 0 0 0 0 0 0 0 0 0 127 0" result="hardAlpha"/><feOffset dy="4"/><feGaussianBlur stdDeviation="8"/><feComposite in2="hardAlpha" operator="out"/><feColorMatrix values="0 0 0 0 0.113725 0 0 0 0 0.396078 0 0 0 0 0.537255 0 0 0 0.15 0"/><feBlend in2="BackgroundImageFix" result="effect1_dropShadow_1_134"/><feBlend in="SourceGraphic" in2="effect1_dropShadow_1_134" result="shape"/></filter><clipPath id="a"><path fill="#fff" d="M0 0h421v353H0z"/></clipPath></defs></svg>