<svg width="18" height="18" viewBox="0 0 18 18" fill="none" xmlns="http://www.w3.org/2000/svg">
<path fill-rule="evenodd" clip-rule="evenodd" d="M13.0635 17.9998C14.2581 17.9998 15.3769 17.4903 16.1844 16.6774C17.7506 15.1014 18.1869 12.3507 15.9914 10.1419C14.7063 8.84904 9.55543 3.66466 6.98501 1.07769C6.07227 0.159329 4.91078 -0.19601 3.79939 0.10431C2.70637 0.398107 1.81201 1.29885 1.51885 2.39814C1.22153 3.51852 1.57354 4.68762 2.48563 5.60619L11.0991 14.2757C11.5909 14.7706 12.1466 15.0638 12.7049 15.1223C13.2585 15.1808 13.7859 15.0029 14.1552 14.6308C14.8245 13.9549 14.9203 12.6867 13.8061 11.5663L7.7562 5.47724C7.50767 5.22737 7.10512 5.22737 6.85637 5.47724C6.60783 5.7271 6.60783 6.13311 6.85637 6.38298L12.9075 12.4729C13.4304 12.9981 13.4783 13.5006 13.2556 13.7255C13.1578 13.8227 13.0097 13.8679 12.8391 13.8488C12.5774 13.822 12.279 13.6503 11.9992 13.3706L3.38546 4.70175C2.7941 4.10677 2.56745 3.40675 2.74772 2.73217C2.92515 2.06629 3.46641 1.52175 4.1269 1.34256C4.79789 1.16163 5.49447 1.39062 6.08561 1.98539C8.65625 4.57345 13.8061 9.75674 15.0923 11.0496C16.7703 12.7386 16.3682 14.6828 15.2854 15.7732C14.2016 16.8635 12.2716 17.2691 10.5929 15.5785L1.58645 6.51411C1.3377 6.26424 0.93493 6.26424 0.686399 6.51411C0.437867 6.7642 0.437867 7.16999 0.686399 7.42029L9.69304 16.4847C10.7545 17.5516 11.9436 18 13.0635 18V17.9998Z" fill="#2A1A1F"/>
</svg>
