<svg width="24" height="24" viewBox="0 0 24 24" fill="none" xmlns="http://www.w3.org/2000/svg">
<g opacity="0.6">
<path d="M12 23C18.0545 23 23 18.0845 23 12C23 5.91553 18.0545 1 12 1C5.9455 1 1 5.9455 1 12C1 18.0545 5.9455 23 12 23ZM5.34605 19.1635C7.14441 16.9155 9.51226 15.6867 12 15.6867C14.4877 15.6867 16.8556 16.9155 18.654 19.1635C16.9155 20.782 14.5777 21.7711 12 21.7711C9.42234 21.7711 7.08447 20.782 5.34605 19.1635ZM12 2.19891C17.3951 2.19891 21.8011 6.60491 21.8011 12C21.8011 14.3978 20.9319 16.5858 19.4932 18.2943C17.455 15.8365 14.8174 14.4877 12 14.4877C9.18256 14.4877 6.54496 15.8365 4.50681 18.2943C3.06812 16.5858 2.19891 14.3978 2.19891 12C2.19891 6.60491 6.60491 2.19891 12 2.19891Z" fill="#2A1A1F"/>
<path d="M12 12.9898C14.3379 12.9898 16.2562 11.0715 16.2562 8.73367C16.2562 6.39579 14.3379 4.47754 12 4.47754C9.66215 4.47754 7.7439 6.39579 7.7439 8.73367C7.7439 11.0715 9.66215 12.9898 12 12.9898ZM12 5.67645C13.6785 5.67645 15.0572 7.0552 15.0572 8.73367C15.0572 10.4121 13.6785 11.7909 12 11.7909C10.3216 11.7909 8.94281 10.4121 8.94281 8.73367C8.94281 7.0552 10.3216 5.67645 12 5.67645Z" fill="#2A1A1F"/>
</g>
</svg>
