<svg width="24" height="24" viewBox="0 0 24 24" fill="none" xmlns="http://www.w3.org/2000/svg">
<g opacity="0.6">
<path d="M10.2811 8.52366L10.228 8.47071L10.2279 8.47075L10.2278 8.47089L10.2272 8.47145L10.225 8.47367L10.2164 8.48232L10.1836 8.51518L10.0666 8.63256L9.71051 8.98983L9.35188 9.35008L9.23159 9.47124C9.20412 9.49898 9.1832 9.52014 9.1792 9.5248L9.17851 9.52562C9.17033 9.53543 9.1622 9.5443 9.15272 9.55465C9.14632 9.56163 9.13932 9.56927 9.13126 9.57834C9.11346 9.59836 9.09313 9.62265 9.07682 9.64995C9.0604 9.67745 9.04593 9.71146 9.04376 9.75082C9.04152 9.79159 9.05284 9.8318 9.07794 9.86972L9.08211 9.87601L9.08744 9.88134L14.1186 14.9125L14.1181 14.913L14.1263 14.9192C14.1911 14.9684 14.2637 14.9485 14.3209 14.9173C14.3783 14.8861 14.446 14.8305 14.5261 14.7594L14.5262 14.7595L14.5291 14.7565L15.5213 13.7722L15.5215 13.772C15.8267 13.4667 16.3306 13.0751 16.9997 13.0752C17.6216 13.0751 18.1332 13.4273 18.4779 13.772L21.2278 16.5219C21.5932 16.8873 21.9385 17.3753 21.9246 18.0141C21.9111 18.6306 21.5677 19.1777 21.1924 19.5061L19.1924 21.2561C18.5726 21.7984 17.7723 21.925 16.9997 21.925C14.3813 21.925 10.6636 20.1118 7.27168 16.7205C3.88044 13.3286 2.075 9.61876 2.075 7.00032C2.075 6.22751 2.20169 5.41945 2.74393 4.79975L4.49389 2.7998C4.8218 2.42505 5.36882 2.08885 5.98592 2.07541C5.98592 2.07541 5.98592 2.07541 5.98592 2.07541M10.2811 8.52366L5.98592 2.07541M10.2811 8.52366L10.228 8.4707L10.228 8.47062C10.5336 8.16513 10.9248 7.66908 10.9248 7.00032C10.9248 6.37843 10.5728 5.86685 10.228 5.52213L7.4781 2.77219C7.11268 2.40677 6.6248 2.06151 5.98592 2.07541M10.2811 8.52366L5.98592 2.07541M6.52169 3.72079L6.52169 3.72079L9.26959 6.4687C9.47876 6.64827 9.59152 6.83233 9.58934 7.00862C9.58802 7.11573 9.54572 7.21034 9.48639 7.29403C9.42787 7.37656 9.3499 7.45249 9.27013 7.5236L9.26869 7.52504L9.25999 7.53375L9.22695 7.56684L9.10893 7.68506L8.74971 8.04495L8.38755 8.40803L8.26588 8.5302L8.23055 8.56578C8.22387 8.57252 8.22014 8.57631 8.21865 8.57783C8.21808 8.57841 8.21784 8.57866 8.21788 8.57861L8.21592 8.58074L8.21588 8.5807C7.6241 9.17346 7.51227 10.0734 8.02476 10.7237L13.2684 15.9674C13.9306 16.4892 14.8023 16.3224 15.3767 15.8223C15.3768 15.8223 15.3768 15.8222 15.377 15.8221C15.3774 15.8217 15.3785 15.8207 15.3805 15.8188L15.3918 15.8077L15.4305 15.7694L15.5599 15.6405C15.6649 15.5357 15.8019 15.3985 15.9379 15.2622L16.3099 14.8893L16.4317 14.767L16.4658 14.7329L16.4747 14.7239L16.4763 14.7223L16.477 14.7215L16.4776 14.721L16.4778 14.7208L16.4778 14.7208L16.5309 14.7737C16.7029 14.5907 16.8578 14.497 17.0003 14.4996C17.1793 14.5028 17.3372 14.6424 17.4684 14.7737L6.52169 3.72079ZM6.52169 3.72079L6.52113 3.72024C6.363 3.5654 6.19857 3.44747 6.02339 3.42772C5.84038 3.40708 5.66935 3.49501 5.50525 3.69403L3.75602 5.69315C3.65929 5.8037 3.5774 5.98578 3.51944 6.20783C3.46096 6.43187 3.42497 6.7038 3.42497 7.00032C3.42497 7.96468 3.82972 9.36022 4.62935 10.9097C5.42999 12.4611 6.62986 14.1734 8.22808 15.772L8.22809 15.772C9.82661 17.3702 11.5389 18.5701 13.0903 19.3707C14.6398 20.1703 16.0353 20.5751 16.9997 20.5751C17.2965 20.5751 17.5687 20.5371 17.7928 20.4766C18.015 20.4166 18.1967 20.3327 18.3069 20.2363L18.2575 20.1799L18.3069 20.2363L20.3026 18.49C20.4586 18.3896 20.572 18.2512 20.5782 18.0689C20.5843 17.8888 20.4842 17.69 20.2722 17.4714L20.2714 17.4706L17.5215 14.7207M6.52169 3.72079L17.5215 14.7207M17.5215 14.7207C17.5215 14.7207 17.5215 14.7207 17.5215 14.7207L17.5215 14.7207Z" fill="#2A1A1F" stroke="#FCFCFC" stroke-width="0.15"/>
</g>
</svg>
