<svg viewBox="0 0 143 30" fill="none" xmlns="http://www.w3.org/2000/svg"><path d="M14.232 11.32c-.128.064-.128.128 0 .192 2.027 1.045 3.04 2.784 3.04 5.216 0 2.07-.704 3.637-2.112 4.704C13.752 22.477 11.907 23 9.624 23H1.336a.468.468 0 0 1-.288-.096.468.468 0 0 1-.096-.288V.984c0-.107.032-.192.096-.256A.398.398 0 0 1 1.336.6h8.032c5.056 0 7.584 2.048 7.584 6.144 0 2.133-.907 3.659-2.72 4.576ZM5.624 4.472c-.107 0-.16.053-.16.16v4.992c0 .107.053.16.16.16h3.744c1.003 0 1.781-.235 2.336-.704.555-.47.832-1.11.832-1.92 0-.832-.277-1.483-.832-1.952-.555-.49-1.333-.736-2.336-.736H5.624Zm4 14.624c.981 0 1.75-.245 2.304-.736.555-.512.832-1.205.832-2.08s-.277-1.557-.832-2.048c-.555-.512-1.333-.768-2.336-.768H5.624c-.107 0-.16.053-.16.16v5.312c0 .107.053.16.16.16h4Zm25.444-6.016c.128.81.17 1.717.128 2.72-.022.256-.16.384-.416.384h-9.888c-.128 0-.17.053-.128.16.064.427.181.853.352 1.28.554 1.195 1.685 1.792 3.392 1.792 1.365-.021 2.442-.576 3.232-1.664.085-.128.181-.192.288-.192.064 0 .138.043.224.128l2.304 2.272c.106.107.16.203.16.288 0 .043-.043.128-.128.256-.704.875-1.61 1.557-2.72 2.048-1.11.47-2.326.704-3.648.704-1.835 0-3.392-.416-4.672-1.248-1.259-.832-2.166-1.995-2.72-3.488-.448-1.067-.672-2.464-.672-4.192 0-1.173.16-2.208.48-3.104.49-1.515 1.344-2.72 2.56-3.616 1.237-.896 2.698-1.344 4.384-1.344 2.133 0 3.84.619 5.12 1.856 1.301 1.237 2.09 2.89 2.368 4.96Zm-7.456-2.912c-1.344 0-2.23.63-2.656 1.888-.086.277-.16.619-.224 1.024 0 .107.053.16.16.16h5.536c.128 0 .17-.053.128-.16-.107-.619-.16-.917-.16-.896-.192-.64-.534-1.13-1.024-1.472-.47-.363-1.056-.544-1.76-.544ZM50.169.984c0-.107.032-.192.096-.256A.398.398 0 0 1 50.552.6h3.744c.106 0 .192.043.256.128.085.064.128.15.128.256v21.632a.398.398 0 0 1-.128.288.346.346 0 0 1-.256.096h-3.744a.468.468 0 0 1-.288-.096.468.468 0 0 1-.096-.288v-8.832c0-.107-.054-.16-.16-.16h-7.072c-.107 0-.16.053-.16.16v8.832a.398.398 0 0 1-.129.288.346.346 0 0 1-.256.096h-3.744a.468.468 0 0 1-.288-.096.468.468 0 0 1-.096-.288V.984c0-.107.032-.192.096-.256A.398.398 0 0 1 38.648.6h3.744c.107 0 .192.043.256.128.086.064.128.15.128.256v8.608c0 .107.054.16.16.16h7.072c.107 0 .16-.053.16-.16V.984ZM72.63 13.08c.128.81.17 1.717.128 2.72-.021.256-.16.384-.416.384h-9.888c-.128 0-.17.053-.128.16.064.427.182.853.352 1.28.555 1.195 1.686 1.792 3.392 1.792 1.366-.021 2.443-.576 3.232-1.664.086-.128.182-.192.288-.192.064 0 .139.043.224.128l2.304 2.272c.107.107.16.203.16.288 0 .043-.042.128-.128.256-.704.875-1.61 1.557-2.72 2.048-1.11.47-2.325.704-3.648.704-1.834 0-3.392-.416-4.672-1.248-1.258-.832-2.165-1.995-2.72-3.488-.448-1.067-.672-2.464-.672-4.192 0-1.173.16-2.208.48-3.104.49-1.515 1.344-2.72 2.56-3.616 1.238-.896 2.699-1.344 4.384-1.344 2.134 0 3.84.619 5.12 1.856 1.302 1.237 2.09 2.89 2.368 4.96Zm-7.456-2.912c-1.344 0-2.23.63-2.656 1.888-.085.277-.16.619-.224 1.024 0 .107.054.16.16.16h5.536c.128 0 .17-.053.128-.16-.106-.619-.16-.917-.16-.896-.192-.64-.533-1.13-1.024-1.472-.47-.363-1.056-.544-1.76-.544Zm16.769-3.872c1.386 0 2.624.245 3.712.736 1.088.47 1.93 1.12 2.528 1.952.618.832.928 1.76.928 2.784v10.848a.398.398 0 0 1-.128.288.346.346 0 0 1-.256.096h-3.744a.468.468 0 0 1-.288-.096.468.468 0 0 1-.096-.288V21.56c0-.064-.022-.107-.064-.128-.043-.021-.086 0-.128.064-.896 1.173-2.336 1.76-4.32 1.76-1.664 0-3.008-.405-4.032-1.216-1.024-.81-1.536-2.005-1.536-3.584 0-1.643.576-2.912 1.728-3.808 1.152-.917 2.794-1.376 4.928-1.376h3.264c.106 0 .16-.053.16-.16v-.704c0-.704-.214-1.248-.64-1.632-.427-.405-1.067-.608-1.92-.608-.662 0-1.216.117-1.664.352-.427.235-.704.565-.832.992-.064.235-.203.341-.416.32l-3.872-.512c-.256-.043-.374-.139-.352-.288.085-.896.437-1.707 1.056-2.432.64-.725 1.472-1.29 2.496-1.696 1.045-.405 2.208-.608 3.488-.608Zm-.64 13.6c.917 0 1.696-.245 2.336-.736.64-.49.96-1.12.96-1.888V16.12c0-.107-.054-.16-.16-.16h-2.304c-.96 0-1.718.181-2.272.544-.534.363-.8.875-.8 1.536 0 .576.202 1.035.608 1.376.405.32.95.48 1.632.48ZM92.673 23a.468.468 0 0 1-.288-.096.468.468 0 0 1-.096-.288V.984c0-.107.032-.192.096-.256A.398.398 0 0 1 92.673.6h3.744c.107 0 .192.043.256.128.085.064.128.15.128.256v21.632a.398.398 0 0 1-.128.288.346.346 0 0 1-.256.096h-3.744Zm16.869-13.216a.4.4 0 0 1-.128.288.347.347 0 0 1-.256.096h-3.072c-.107 0-.16.053-.16.16v6.784c0 .704.138 1.227.416 1.568.298.341.768.512 1.408.512h1.056c.106 0 .192.043.256.128.085.064.128.15.128.256v3.04c0 .235-.128.373-.384.416-.896.043-1.536.064-1.921.064-1.77 0-3.093-.288-3.967-.864-.875-.597-1.323-1.707-1.344-3.328v-8.576c0-.107-.054-.16-.16-.16h-1.825a.468.468 0 0 1-.287-.096.468.468 0 0 1-.097-.288V6.936c0-.107.032-.192.097-.256a.398.398 0 0 1 .287-.128h1.825c.106 0 .16-.053.16-.16V2.584c0-.107.032-.192.096-.256a.397.397 0 0 1 .288-.128h3.584c.106 0 .192.043.256.128.085.064.128.15.128.256v3.808c0 .107.053.16.16.16h3.072c.106 0 .192.043.256.128.085.064.128.15.128.256v2.848Zm11.292-3.488c1.706 0 3.082.523 4.128 1.568 1.045 1.045 1.568 2.464 1.568 4.256v10.496a.4.4 0 0 1-.128.288.347.347 0 0 1-.256.096h-3.744a.467.467 0 0 1-.288-.096.468.468 0 0 1-.096-.288v-9.568c0-.853-.246-1.547-.736-2.08-.47-.533-1.099-.8-1.888-.8-.79 0-1.43.267-1.92.8-.47.533-.704 1.227-.704 2.08v9.568a.4.4 0 0 1-.128.288.347.347 0 0 1-.256.096h-3.744a.467.467 0 0 1-.288-.096.468.468 0 0 1-.096-.288V.984c0-.107.032-.192.096-.256a.397.397 0 0 1 .288-.128h3.744c.106 0 .192.043.256.128.085.064.128.15.128.256v7.072c0 .064.021.107.064.128.042.021.074.01.096-.032.874-1.237 2.176-1.856 3.904-1.856Zm8.109 23.072c-.064 0-.117-.043-.16-.128a.452.452 0 0 1-.064-.256V26.04c0-.107.032-.203.096-.288a.467.467 0 0 1 .288-.096c.896-.021 1.6-.096 2.112-.224.533-.128.949-.373 1.248-.736.32-.363.565-.896.736-1.6.021-.043.021-.107 0-.192l-5.248-15.936a.36.36 0 0 1-.032-.16c0-.192.117-.288.352-.288h4c.235 0 .384.107.448.32l2.688 10.368c.021.064.053.096.096.096.043 0 .075-.032.096-.096l2.688-10.368c.064-.213.213-.32.448-.32h3.904c.128 0 .213.043.256.128.064.064.075.17.032.32l-5.536 16.64c-.533 1.557-1.077 2.72-1.632 3.488-.555.79-1.333 1.365-2.336 1.728s-2.421.544-4.256.544h-.224Z" fill="#175676"/></svg>