<svg width="10" height="16" viewBox="0 0 10 16" fill="none" xmlns="http://www.w3.org/2000/svg">
<path d="M0.5 8C0.5 8.31567 0.614594 8.58625 0.86141 8.82074L7.71939 15.6933C7.91332 15.8918 8.16014 16 8.45103 16C9.03281 16 9.5 15.531 9.5 14.9267C9.5 14.6291 9.37659 14.3675 9.18266 14.1601L3.00343 8L9.18266 1.83991C9.37659 1.63247 9.5 1.36189 9.5 1.07328C9.5 0.468997 9.03281 0 8.45103 0C8.16014 0 7.91332 0.10823 7.71939 0.306652L0.86141 7.17024C0.614594 7.41375 0.5 7.68433 0.5 8Z" fill="#909590"/>
</svg>
