<svg width="24" height="24" viewBox="0 0 24 24" fill="none" xmlns="http://www.w3.org/2000/svg">
<g opacity="0.7">
<path d="M12 16.5C12.3157 16.5 12.5862 16.3854 12.8207 16.1386L19.6933 9.28061C19.8918 9.08668 20 8.83986 20 8.54897C20 7.96719 19.531 7.5 18.9267 7.5C18.6291 7.5 18.3675 7.62341 18.1601 7.81734L12 13.9966L5.83991 7.81734C5.63247 7.62341 5.36189 7.5 5.07328 7.5C4.469 7.5 4 7.96719 4 8.54897C4 8.83986 4.10823 9.08668 4.30665 9.28061L11.1702 16.1386C11.4138 16.3854 11.6843 16.5 12 16.5Z" fill="#2A1A1F"/>
</g>
</svg>
