<svg viewBox="0 0 24 24" fill="none" xmlns="http://www.w3.org/2000/svg"><path fill-rule="evenodd" clip-rule="evenodd" d="M5.383 16.1h13.235a1.033 1.033 0 0 1 .731 1.767 1.033 1.033 0 0 1-.731.304H5.383a1.033 1.033 0 0 1-1.034-1.036A1.036 1.036 0 0 1 5.383 16.1Zm1.375-5.882A5.253 5.253 0 0 1 8.306 6.53a5.24 5.24 0 0 1 7.39 0 5.252 5.252 0 0 1 1.548 3.688v4.507H6.757v-4.507h.001Zm4.46-7.06A.784.784 0 0 1 12 2.374a.78.78 0 0 1 .782.782v.483a6.601 6.601 0 0 0-1.563 0v-.483ZM12 21.623a2.498 2.498 0 0 1-2.46-2.077h4.92A2.503 2.503 0 0 1 12 21.623Zm-6.616-2.077h2.77a3.866 3.866 0 0 0 7.692 0h2.772A2.405 2.405 0 0 0 21 17.137a2.412 2.412 0 0 0-2.383-2.411h-.001v-4.508a6.642 6.642 0 0 0-4.462-6.263v-.798A2.159 2.159 0 0 0 12 1a2.154 2.154 0 0 0-2.154 2.157v.798a6.641 6.641 0 0 0-4.461 6.263v4.507A2.406 2.406 0 0 0 3 17.135a2.412 2.412 0 0 0 2.383 2.41v.002Z" fill="#2A1A1F"/></svg>